<?xml version="1.0" encoding="UTF-8"?>
<svg width="313px" height="416px" viewBox="0 0 313 416" version="1.1" xmlns="http://www.w3.org/2000/svg" xmlns:xlink="http://www.w3.org/1999/xlink">
    <title>Group 10 Copy</title>
    <defs>
        <path d="M24,0 L311,0 C312.104569,-2.02906125e-16 313,0.8954305 313,2 L313,414 C313,415.104569 312.104569,416 311,416 L24,416 C10.745166,416 1.623249e-15,405.254834 0,392 L0,24 C-1.623249e-15,10.745166 10.745166,2.4348735e-15 24,0 Z" id="path-1"></path>
        <polygon id="path-3" points="0.307692308 0.326820513 15.0923077 0.326820513 15.0923077 15.1107692 0.307692308 15.1107692"></polygon>
        <polygon id="path-5" points="0.307692308 0.326820513 15.0923077 0.326820513 15.0923077 15.1107692 0.307692308 15.1107692"></polygon>
        <polygon id="path-7" points="0.307692308 0.326820513 15.0923077 0.326820513 15.0923077 15.1107692 0.307692308 15.1107692"></polygon>
        <polygon id="path-9" points="0.307692308 0.326820513 15.0923077 0.326820513 15.0923077 15.1107692 0.307692308 15.1107692"></polygon>
        <polygon id="path-11" points="0.307692308 0.326820513 15.0923077 0.326820513 15.0923077 15.1107692 0.307692308 15.1107692"></polygon>
        <polygon id="path-13" points="0.307692308 0.326820513 15.0923077 0.326820513 15.0923077 15.1107692 0.307692308 15.1107692"></polygon>
        <polygon id="path-15" points="0.307692308 0.326820513 15.0923077 0.326820513 15.0923077 15.1107692 0.307692308 15.1107692"></polygon>
        <polygon id="path-17" points="0.307692308 0.326820513 15.0923077 0.326820513 15.0923077 15.1107692 0.307692308 15.1107692"></polygon>
        <polygon id="path-19" points="0.307692308 0.326820513 15.0923077 0.326820513 15.0923077 15.1107692 0.307692308 15.1107692"></polygon>
    </defs>
    <g id="Page-1" stroke="none" stroke-width="1" fill="none" fill-rule="evenodd">
        <g id="Artboard" transform="translate(-97.000000, -20.000000)">
            <g id="Group-10-Copy" transform="translate(97.000000, 20.000000)">
                <mask id="mask-2" fill="white">
                    <use xlink:href="#path-1"></use>
                </mask>
                <use id="Mask" fill="#F5C234" xlink:href="#path-1"></use>
                <g mask="url(#mask-2)">
                    <g transform="translate(-33.000000, 17.000000)">
                        <g id="Group-6" transform="translate(133.000000, 134.500000)">
                            <path d="M56.0494621,48.9886998 C60.4430905,48.9886998 64.0048419,52.5504512 64.0048419,56.9440797 C64.0048419,61.338231 60.4430905,64.8999824 56.0494621,64.8999824 C51.6558336,64.8999824 48.0935594,61.338231 48.0935594,56.9440797 C48.0935594,52.5504512 51.6558336,48.9886998 56.0494621,48.9886998" id="Fill-1-Copy" fill="#161616"></path>
                            <g id="Group-4" transform="translate(48.477099, 0.000000)" fill="#161616">
                                <g id="Group-3">
                                    <path d="M6.62991892,0 C10.291276,0 13.2594021,2.96812616 13.2594021,6.6294832 C13.2594021,10.291276 10.291276,13.2594021 6.62991892,13.2594021 C2.96856188,13.2594021 0,10.291276 0,6.6294832 C0,2.96812616 2.96856188,0 6.62991892,0" id="Fill-1-Copy-2"></path>
                                    <path d="M6.62970106,20.4211484 C8.03796367,20.4211484 9.18984148,21.5188622 9.27636423,22.9053197 L9.28158149,23.0730288 L9.28158149,38.9178103 C9.28158149,40.3824035 8.09429418,41.5696908 6.62970106,41.5696908 C5.22143845,41.5696908 4.06956065,40.4719769 3.98303789,39.0855194 L3.97782064,38.9178103 L3.97782064,23.0730288 C3.97782064,21.6084357 5.16510794,20.4211484 6.62970106,20.4211484 Z" id="Path-2" fill-rule="nonzero"></path>
                                </g>
                                <g id="Group-3" transform="translate(7.000000, 91.122229) scale(1, -1) translate(-7.000000, -91.122229) translate(0.000000, 70.122229)">
                                    <path d="M6.62991892,0 C10.291276,0 13.2594021,2.96812616 13.2594021,6.6294832 C13.2594021,10.291276 10.291276,13.2594021 6.62991892,13.2594021 C2.96856188,13.2594021 0,10.291276 0,6.6294832 C0,2.96812616 2.96856188,0 6.62991892,0" id="Fill-1-Copy-2"></path>
                                    <path d="M6.62970106,20.4211484 C8.03796367,20.4211484 9.18984148,21.5188622 9.27636423,22.9053197 L9.28158149,23.0730288 L9.28158149,38.9178103 C9.28158149,40.3824035 8.09429418,41.5696908 6.62970106,41.5696908 C5.22143845,41.5696908 4.06956065,40.4719769 3.98303789,39.0855194 L3.97782064,38.9178103 L3.97782064,23.0730288 C3.97782064,21.6084357 5.16510794,20.4211484 6.62970106,20.4211484 Z" id="Path-2" fill-rule="nonzero"></path>
                                </g>
                            </g>
                            <g id="Group-3" transform="translate(65.622229, 57.385728) rotate(-270.000000) translate(-65.622229, -57.385728) translate(58.622229, 10.885728)" fill="#161616">
                                <path d="M6.62991892,0 C10.291276,0 13.2594021,2.96812616 13.2594021,6.6294832 C13.2594021,10.291276 10.291276,13.2594021 6.62991892,13.2594021 C2.96856188,13.2594021 0,10.291276 0,6.6294832 C0,2.96812616 2.96856188,0 6.62991892,0" id="Fill-1-Copy-2"></path>
                                <g id="Group-2" transform="translate(3.303761, 20.073029)" fill-rule="nonzero">
                                    <path d="M3.32594021,0.348119576 C4.73420282,0.348119576 5.88608063,1.44583343 5.97260338,2.83229091 L5.97782064,3 L5.97782064,18.8447815 C5.97782064,20.3093747 4.79053333,21.496662 3.32594021,21.496662 C1.9176776,21.496662 0.765799796,20.3989481 0.67927704,19.0124906 L0.674059788,18.8447815 L0.674059788,3 C0.674059788,1.53540688 1.8613471,0.348119576 3.32594021,0.348119576 Z" id="Path-2"></path>
                                    <path d="M3.32594021,50.4795099 C4.73420282,50.4795099 5.88608063,51.5772237 5.97260338,52.9636812 L5.97782064,53.1313903 L5.97782064,68.9761719 C5.97782064,70.440765 4.79053333,71.6280523 3.32594021,71.6280523 C1.9176776,71.6280523 0.765799796,70.5303384 0.67927704,69.1438809 L0.674059788,68.9761719 L0.674059788,53.1313903 C0.674059788,51.6667972 1.8613471,50.4795099 3.32594021,50.4795099 Z" id="Path-2" transform="translate(3.325940, 61.053781) scale(1, -1) translate(-3.325940, -61.053781) "></path>
                                </g>
                            </g>
                            <g id="Group-3" transform="translate(7.000000, 57.385728) scale(1, -1) rotate(270.000000) translate(-7.000000, -57.385728) translate(0.000000, 50.385728)" fill="#161616">
                                <path d="M6.62991892,0 C10.291276,0 13.2594021,2.96812616 13.2594021,6.6294832 C13.2594021,10.291276 10.291276,13.2594021 6.62991892,13.2594021 C2.96856188,13.2594021 0,10.291276 0,6.6294832 C0,2.96812616 2.96856188,0 6.62991892,0" id="Fill-1-Copy-2"></path>
                            </g>
                            <g id="Group-3" transform="translate(80.835395, 31.810516) rotate(-315.000000) translate(-80.835395, -31.810516) translate(73.835395, 10.810516)" fill="#161616">
                                <path d="M6.62991892,0 C10.291276,0 13.2594021,2.96812616 13.2594021,6.6294832 C13.2594021,10.291276 10.291276,13.2594021 6.62991892,13.2594021 C2.96856188,13.2594021 0,10.291276 0,6.6294832 C0,2.96812616 2.96856188,0 6.62991892,0" id="Fill-1-Copy-2"></path>
                                <path d="M6.62970106,20.4211484 C8.03796367,20.4211484 9.18984148,21.5188622 9.27636423,22.9053197 L9.28158149,23.0730288 L9.28158149,38.9178103 C9.28158149,40.3824035 8.09429418,41.5696908 6.62970106,41.5696908 C5.22143845,41.5696908 4.06956065,40.4719769 3.98303789,39.0855194 L3.97782064,38.9178103 L3.97782064,23.0730288 C3.97782064,21.6084357 5.16510794,20.4211484 6.62970106,20.4211484 Z" id="Path-2" fill-rule="nonzero"></path>
                            </g>
                            <g id="Group-3" transform="translate(31.251491, 81.394420) scale(1, -1) rotate(315.000000) translate(-31.251491, -81.394420) translate(24.251491, 60.394420)" fill="#161616">
                                <path d="M6.62991892,0 C10.291276,0 13.2594021,2.96812616 13.2594021,6.6294832 C13.2594021,10.291276 10.291276,13.2594021 6.62991892,13.2594021 C2.96856188,13.2594021 0,10.291276 0,6.6294832 C0,2.96812616 2.96856188,0 6.62991892,0" id="Fill-1-Copy-2"></path>
                                <path d="M6.62970106,20.4211484 C8.03796367,20.4211484 9.18984148,21.5188622 9.27636423,22.9053197 L9.28158149,23.0730288 L9.28158149,38.9178103 C9.28158149,40.3824035 8.09429418,41.5696908 6.62970106,41.5696908 C5.22143845,41.5696908 4.06956065,40.4719769 3.98303789,39.0855194 L3.97782064,38.9178103 L3.97782064,23.0730288 C3.97782064,21.6084357 5.16510794,20.4211484 6.62970106,20.4211484 Z" id="Path-2" fill-rule="nonzero"></path>
                            </g>
                            <g id="Group-3" transform="translate(80.311714, 82.744024) rotate(-585.000000) translate(-80.311714, -82.744024) translate(73.311714, 61.744024)" fill="#161616">
                                <path d="M6.62991892,0 C10.291276,0 13.2594021,2.96812616 13.2594021,6.6294832 C13.2594021,10.291276 10.291276,13.2594021 6.62991892,13.2594021 C2.96856188,13.2594021 0,10.291276 0,6.6294832 C0,2.96812616 2.96856188,0 6.62991892,0" id="Fill-1-Copy-2"></path>
                                <path d="M6.62970106,20.4211484 C8.03796367,20.4211484 9.18984148,21.5188622 9.27636423,22.9053197 L9.28158149,23.0730288 L9.28158149,38.9178103 C9.28158149,40.3824035 8.09429418,41.5696908 6.62970106,41.5696908 C5.22143845,41.5696908 4.06956065,40.4719769 3.98303789,39.0855194 L3.97782064,38.9178103 L3.97782064,23.0730288 C3.97782064,21.6084357 5.16510794,20.4211484 6.62970106,20.4211484 Z" id="Path-2" fill-rule="nonzero"></path>
                            </g>
                            <g id="Group-3" transform="translate(30.727810, 33.160120) scale(1, -1) rotate(585.000000) translate(-30.727810, -33.160120) translate(23.727810, 12.160120)" fill="#161616">
                                <path d="M6.62991892,0 C10.291276,0 13.2594021,2.96812616 13.2594021,6.6294832 C13.2594021,10.291276 10.291276,13.2594021 6.62991892,13.2594021 C2.96856188,13.2594021 0,10.291276 0,6.6294832 C0,2.96812616 2.96856188,0 6.62991892,0" id="Fill-1-Copy-2"></path>
                                <path d="M6.62970106,20.4211484 C8.03796367,20.4211484 9.18984148,21.5188622 9.27636423,22.9053197 L9.28158149,23.0730288 L9.28158149,38.9178103 C9.28158149,40.3824035 8.09429418,41.5696908 6.62970106,41.5696908 C5.22143845,41.5696908 4.06956065,40.4719769 3.98303789,39.0855194 L3.97782064,38.9178103 L3.97782064,23.0730288 C3.97782064,21.6084357 5.16510794,20.4211484 6.62970106,20.4211484 Z" id="Path-2" fill-rule="nonzero"></path>
                            </g>
                            <g id="Group" transform="translate(60.029169, 35.819076) scale(1, -1) translate(-60.029169, -35.819076) translate(52.029169, 27.819076)">
                                <mask id="mask-4" fill="white">
                                    <use xlink:href="#path-3"></use>
                                </mask>
                                <g id="Clip-22"></g>
                            </g>
                        </g>
                        <g id="Group-6-Copy-3" opacity="0.4" transform="translate(0.000000, 134.500000)">
                            <path d="M56.0494621,48.9886998 C60.4430905,48.9886998 64.0048419,52.5504512 64.0048419,56.9440797 C64.0048419,61.338231 60.4430905,64.8999824 56.0494621,64.8999824 C51.6558336,64.8999824 48.0935594,61.338231 48.0935594,56.9440797 C48.0935594,52.5504512 51.6558336,48.9886998 56.0494621,48.9886998" id="Fill-1-Copy" fill="#161616"></path>
                            <g id="Group-4" transform="translate(48.477099, 0.000000)" fill="#161616">
                                <g id="Group-3">
                                    <path d="M6.62991892,0 C10.291276,0 13.2594021,2.96812616 13.2594021,6.6294832 C13.2594021,10.291276 10.291276,13.2594021 6.62991892,13.2594021 C2.96856188,13.2594021 0,10.291276 0,6.6294832 C0,2.96812616 2.96856188,0 6.62991892,0" id="Fill-1-Copy-2"></path>
                                    <path d="M6.62970106,20.4211484 C8.03796367,20.4211484 9.18984148,21.5188622 9.27636423,22.9053197 L9.28158149,23.0730288 L9.28158149,38.9178103 C9.28158149,40.3824035 8.09429418,41.5696908 6.62970106,41.5696908 C5.22143845,41.5696908 4.06956065,40.4719769 3.98303789,39.0855194 L3.97782064,38.9178103 L3.97782064,23.0730288 C3.97782064,21.6084357 5.16510794,20.4211484 6.62970106,20.4211484 Z" id="Path-2" fill-rule="nonzero"></path>
                                </g>
                                <g id="Group-3" transform="translate(7.000000, 91.122229) scale(1, -1) translate(-7.000000, -91.122229) translate(0.000000, 70.122229)">
                                    <path d="M6.62991892,0 C10.291276,0 13.2594021,2.96812616 13.2594021,6.6294832 C13.2594021,10.291276 10.291276,13.2594021 6.62991892,13.2594021 C2.96856188,13.2594021 0,10.291276 0,6.6294832 C0,2.96812616 2.96856188,0 6.62991892,0" id="Fill-1-Copy-2"></path>
                                    <path d="M6.62970106,20.4211484 C8.03796367,20.4211484 9.18984148,21.5188622 9.27636423,22.9053197 L9.28158149,23.0730288 L9.28158149,38.9178103 C9.28158149,40.3824035 8.09429418,41.5696908 6.62970106,41.5696908 C5.22143845,41.5696908 4.06956065,40.4719769 3.98303789,39.0855194 L3.97782064,38.9178103 L3.97782064,23.0730288 C3.97782064,21.6084357 5.16510794,20.4211484 6.62970106,20.4211484 Z" id="Path-2" fill-rule="nonzero"></path>
                                </g>
                            </g>
                            <g id="Group-3" transform="translate(65.622229, 57.385728) rotate(-270.000000) translate(-65.622229, -57.385728) translate(58.622229, 10.885728)" fill="#161616">
                                <path d="M6.62991892,0 C10.291276,0 13.2594021,2.96812616 13.2594021,6.6294832 C13.2594021,10.291276 10.291276,13.2594021 6.62991892,13.2594021 C2.96856188,13.2594021 0,10.291276 0,6.6294832 C0,2.96812616 2.96856188,0 6.62991892,0" id="Fill-1-Copy-2"></path>
                                <g id="Group-2" transform="translate(3.303761, 20.073029)" fill-rule="nonzero">
                                    <path d="M3.32594021,0.348119576 C4.73420282,0.348119576 5.88608063,1.44583343 5.97260338,2.83229091 L5.97782064,3 L5.97782064,18.8447815 C5.97782064,20.3093747 4.79053333,21.496662 3.32594021,21.496662 C1.9176776,21.496662 0.765799796,20.3989481 0.67927704,19.0124906 L0.674059788,18.8447815 L0.674059788,3 C0.674059788,1.53540688 1.8613471,0.348119576 3.32594021,0.348119576 Z" id="Path-2"></path>
                                    <path d="M3.32594021,50.4795099 C4.73420282,50.4795099 5.88608063,51.5772237 5.97260338,52.9636812 L5.97782064,53.1313903 L5.97782064,68.9761719 C5.97782064,70.440765 4.79053333,71.6280523 3.32594021,71.6280523 C1.9176776,71.6280523 0.765799796,70.5303384 0.67927704,69.1438809 L0.674059788,68.9761719 L0.674059788,53.1313903 C0.674059788,51.6667972 1.8613471,50.4795099 3.32594021,50.4795099 Z" id="Path-2" transform="translate(3.325940, 61.053781) scale(1, -1) translate(-3.325940, -61.053781) "></path>
                                </g>
                            </g>
                            <g id="Group-3" transform="translate(80.835395, 31.810516) rotate(-315.000000) translate(-80.835395, -31.810516) translate(73.835395, 10.810516)" fill="#161616">
                                <path d="M6.62991892,0 C10.291276,0 13.2594021,2.96812616 13.2594021,6.6294832 C13.2594021,10.291276 10.291276,13.2594021 6.62991892,13.2594021 C2.96856188,13.2594021 0,10.291276 0,6.6294832 C0,2.96812616 2.96856188,0 6.62991892,0" id="Fill-1-Copy-2"></path>
                                <path d="M6.62970106,20.4211484 C8.03796367,20.4211484 9.18984148,21.5188622 9.27636423,22.9053197 L9.28158149,23.0730288 L9.28158149,38.9178103 C9.28158149,40.3824035 8.09429418,41.5696908 6.62970106,41.5696908 C5.22143845,41.5696908 4.06956065,40.4719769 3.98303789,39.0855194 L3.97782064,38.9178103 L3.97782064,23.0730288 C3.97782064,21.6084357 5.16510794,20.4211484 6.62970106,20.4211484 Z" id="Path-2" fill-rule="nonzero"></path>
                            </g>
                            <g id="Group-3" transform="translate(31.251491, 81.394420) scale(1, -1) rotate(315.000000) translate(-31.251491, -81.394420) translate(24.251491, 60.394420)" fill="#161616" fill-rule="nonzero">
                                <path d="M6.62970106,20.4211484 C8.03796367,20.4211484 9.18984148,21.5188622 9.27636423,22.9053197 L9.28158149,23.0730288 L9.28158149,38.9178103 C9.28158149,40.3824035 8.09429418,41.5696908 6.62970106,41.5696908 C5.22143845,41.5696908 4.06956065,40.4719769 3.98303789,39.0855194 L3.97782064,38.9178103 L3.97782064,23.0730288 C3.97782064,21.6084357 5.16510794,20.4211484 6.62970106,20.4211484 Z" id="Path-2"></path>
                            </g>
                            <g id="Group-3" transform="translate(80.311714, 82.744024) rotate(-585.000000) translate(-80.311714, -82.744024) translate(73.311714, 61.744024)" fill="#161616">
                                <path d="M6.62991892,0 C10.291276,0 13.2594021,2.96812616 13.2594021,6.6294832 C13.2594021,10.291276 10.291276,13.2594021 6.62991892,13.2594021 C2.96856188,13.2594021 0,10.291276 0,6.6294832 C0,2.96812616 2.96856188,0 6.62991892,0" id="Fill-1-Copy-2"></path>
                                <path d="M6.62970106,20.4211484 C8.03796367,20.4211484 9.18984148,21.5188622 9.27636423,22.9053197 L9.28158149,23.0730288 L9.28158149,38.9178103 C9.28158149,40.3824035 8.09429418,41.5696908 6.62970106,41.5696908 C5.22143845,41.5696908 4.06956065,40.4719769 3.98303789,39.0855194 L3.97782064,38.9178103 L3.97782064,23.0730288 C3.97782064,21.6084357 5.16510794,20.4211484 6.62970106,20.4211484 Z" id="Path-2" fill-rule="nonzero"></path>
                            </g>
                            <g id="Group-3" transform="translate(30.727810, 33.160120) scale(1, -1) rotate(585.000000) translate(-30.727810, -33.160120) translate(23.727810, 12.160120)" fill="#161616" fill-rule="nonzero">
                                <path d="M6.62970106,20.4211484 C8.03796367,20.4211484 9.18984148,21.5188622 9.27636423,22.9053197 L9.28158149,23.0730288 L9.28158149,38.9178103 C9.28158149,40.3824035 8.09429418,41.5696908 6.62970106,41.5696908 C5.22143845,41.5696908 4.06956065,40.4719769 3.98303789,39.0855194 L3.97782064,38.9178103 L3.97782064,23.0730288 C3.97782064,21.6084357 5.16510794,20.4211484 6.62970106,20.4211484 Z" id="Path-2"></path>
                            </g>
                            <g id="Group" transform="translate(60.029169, 35.819076) scale(1, -1) translate(-60.029169, -35.819076) translate(52.029169, 27.819076)">
                                <mask id="mask-6" fill="white">
                                    <use xlink:href="#path-5"></use>
                                </mask>
                                <g id="Clip-22"></g>
                            </g>
                        </g>
                        <g id="Group-6-Copy-5" opacity="0.1">
                            <path d="M56.0494621,48.9886998 C60.4430905,48.9886998 64.0048419,52.5504512 64.0048419,56.9440797 C64.0048419,61.338231 60.4430905,64.8999824 56.0494621,64.8999824 C51.6558336,64.8999824 48.0935594,61.338231 48.0935594,56.9440797 C48.0935594,52.5504512 51.6558336,48.9886998 56.0494621,48.9886998" id="Fill-1-Copy" fill="#161616"></path>
                            <g id="Group-4" transform="translate(48.477099, 0.000000)" fill="#161616">
                                <g id="Group-3">
                                    <path d="M6.62991892,0 C10.291276,0 13.2594021,2.96812616 13.2594021,6.6294832 C13.2594021,10.291276 10.291276,13.2594021 6.62991892,13.2594021 C2.96856188,13.2594021 0,10.291276 0,6.6294832 C0,2.96812616 2.96856188,0 6.62991892,0" id="Fill-1-Copy-2"></path>
                                    <path d="M6.62970106,20.4211484 C8.03796367,20.4211484 9.18984148,21.5188622 9.27636423,22.9053197 L9.28158149,23.0730288 L9.28158149,38.9178103 C9.28158149,40.3824035 8.09429418,41.5696908 6.62970106,41.5696908 C5.22143845,41.5696908 4.06956065,40.4719769 3.98303789,39.0855194 L3.97782064,38.9178103 L3.97782064,23.0730288 C3.97782064,21.6084357 5.16510794,20.4211484 6.62970106,20.4211484 Z" id="Path-2" fill-rule="nonzero"></path>
                                </g>
                                <g id="Group-3" transform="translate(7.000000, 91.122229) scale(1, -1) translate(-7.000000, -91.122229) translate(0.000000, 70.122229)">
                                    <path d="M6.62991892,0 C10.291276,0 13.2594021,2.96812616 13.2594021,6.6294832 C13.2594021,10.291276 10.291276,13.2594021 6.62991892,13.2594021 C2.96856188,13.2594021 0,10.291276 0,6.6294832 C0,2.96812616 2.96856188,0 6.62991892,0" id="Fill-1-Copy-2"></path>
                                    <path d="M6.62970106,20.4211484 C8.03796367,20.4211484 9.18984148,21.5188622 9.27636423,22.9053197 L9.28158149,23.0730288 L9.28158149,38.9178103 C9.28158149,40.3824035 8.09429418,41.5696908 6.62970106,41.5696908 C5.22143845,41.5696908 4.06956065,40.4719769 3.98303789,39.0855194 L3.97782064,38.9178103 L3.97782064,23.0730288 C3.97782064,21.6084357 5.16510794,20.4211484 6.62970106,20.4211484 Z" id="Path-2" fill-rule="nonzero"></path>
                                </g>
                            </g>
                            <g id="Group-3" transform="translate(65.622229, 57.385728) rotate(-270.000000) translate(-65.622229, -57.385728) translate(58.622229, 10.885728)" fill="#161616">
                                <path d="M6.62991892,0 C10.291276,0 13.2594021,2.96812616 13.2594021,6.6294832 C13.2594021,10.291276 10.291276,13.2594021 6.62991892,13.2594021 C2.96856188,13.2594021 0,10.291276 0,6.6294832 C0,2.96812616 2.96856188,0 6.62991892,0" id="Fill-1-Copy-2"></path>
                                <g id="Group-2" transform="translate(3.303761, 20.073029)" fill-rule="nonzero">
                                    <path d="M3.32594021,0.348119576 C4.73420282,0.348119576 5.88608063,1.44583343 5.97260338,2.83229091 L5.97782064,3 L5.97782064,18.8447815 C5.97782064,20.3093747 4.79053333,21.496662 3.32594021,21.496662 C1.9176776,21.496662 0.765799796,20.3989481 0.67927704,19.0124906 L0.674059788,18.8447815 L0.674059788,3 C0.674059788,1.53540688 1.8613471,0.348119576 3.32594021,0.348119576 Z" id="Path-2"></path>
                                    <path d="M3.32594021,50.4795099 C4.73420282,50.4795099 5.88608063,51.5772237 5.97260338,52.9636812 L5.97782064,53.1313903 L5.97782064,68.9761719 C5.97782064,70.440765 4.79053333,71.6280523 3.32594021,71.6280523 C1.9176776,71.6280523 0.765799796,70.5303384 0.67927704,69.1438809 L0.674059788,68.9761719 L0.674059788,53.1313903 C0.674059788,51.6667972 1.8613471,50.4795099 3.32594021,50.4795099 Z" id="Path-2" transform="translate(3.325940, 61.053781) scale(1, -1) translate(-3.325940, -61.053781) "></path>
                                </g>
                            </g>
                            <g id="Group-3" transform="translate(80.835395, 31.810516) rotate(-315.000000) translate(-80.835395, -31.810516) translate(73.835395, 10.810516)" fill="#161616">
                                <path d="M6.62991892,0 C10.291276,0 13.2594021,2.96812616 13.2594021,6.6294832 C13.2594021,10.291276 10.291276,13.2594021 6.62991892,13.2594021 C2.96856188,13.2594021 0,10.291276 0,6.6294832 C0,2.96812616 2.96856188,0 6.62991892,0" id="Fill-1-Copy-2"></path>
                                <path d="M6.62970106,20.4211484 C8.03796367,20.4211484 9.18984148,21.5188622 9.27636423,22.9053197 L9.28158149,23.0730288 L9.28158149,38.9178103 C9.28158149,40.3824035 8.09429418,41.5696908 6.62970106,41.5696908 C5.22143845,41.5696908 4.06956065,40.4719769 3.98303789,39.0855194 L3.97782064,38.9178103 L3.97782064,23.0730288 C3.97782064,21.6084357 5.16510794,20.4211484 6.62970106,20.4211484 Z" id="Path-2" fill-rule="nonzero"></path>
                            </g>
                            <g id="Group-3" transform="translate(31.251491, 81.394420) scale(1, -1) rotate(315.000000) translate(-31.251491, -81.394420) translate(24.251491, 60.394420)" fill="#161616" fill-rule="nonzero">
                                <path d="M6.62970106,20.4211484 C8.03796367,20.4211484 9.18984148,21.5188622 9.27636423,22.9053197 L9.28158149,23.0730288 L9.28158149,38.9178103 C9.28158149,40.3824035 8.09429418,41.5696908 6.62970106,41.5696908 C5.22143845,41.5696908 4.06956065,40.4719769 3.98303789,39.0855194 L3.97782064,38.9178103 L3.97782064,23.0730288 C3.97782064,21.6084357 5.16510794,20.4211484 6.62970106,20.4211484 Z" id="Path-2"></path>
                            </g>
                            <g id="Group-3" transform="translate(80.311714, 82.744024) rotate(-585.000000) translate(-80.311714, -82.744024) translate(73.311714, 61.744024)" fill="#161616">
                                <path d="M6.62991892,0 C10.291276,0 13.2594021,2.96812616 13.2594021,6.6294832 C13.2594021,10.291276 10.291276,13.2594021 6.62991892,13.2594021 C2.96856188,13.2594021 0,10.291276 0,6.6294832 C0,2.96812616 2.96856188,0 6.62991892,0" id="Fill-1-Copy-2"></path>
                                <path d="M6.62970106,20.4211484 C8.03796367,20.4211484 9.18984148,21.5188622 9.27636423,22.9053197 L9.28158149,23.0730288 L9.28158149,38.9178103 C9.28158149,40.3824035 8.09429418,41.5696908 6.62970106,41.5696908 C5.22143845,41.5696908 4.06956065,40.4719769 3.98303789,39.0855194 L3.97782064,38.9178103 L3.97782064,23.0730288 C3.97782064,21.6084357 5.16510794,20.4211484 6.62970106,20.4211484 Z" id="Path-2" fill-rule="nonzero"></path>
                            </g>
                            <g id="Group-3" transform="translate(30.727810, 33.160120) scale(1, -1) rotate(585.000000) translate(-30.727810, -33.160120) translate(23.727810, 12.160120)" fill="#161616" fill-rule="nonzero">
                                <path d="M6.62970106,20.4211484 C8.03796367,20.4211484 9.18984148,21.5188622 9.27636423,22.9053197 L9.28158149,23.0730288 L9.28158149,38.9178103 C9.28158149,40.3824035 8.09429418,41.5696908 6.62970106,41.5696908 C5.22143845,41.5696908 4.06956065,40.4719769 3.98303789,39.0855194 L3.97782064,38.9178103 L3.97782064,23.0730288 C3.97782064,21.6084357 5.16510794,20.4211484 6.62970106,20.4211484 Z" id="Path-2"></path>
                            </g>
                            <g id="Group" transform="translate(60.029169, 35.819076) scale(1, -1) translate(-60.029169, -35.819076) translate(52.029169, 27.819076)">
                                <mask id="mask-8" fill="white">
                                    <use xlink:href="#path-7"></use>
                                </mask>
                                <g id="Clip-22"></g>
                            </g>
                        </g>
                        <g id="Group-6-Copy-7" opacity="0.1" transform="translate(0.000000, 270.500000)">
                            <path d="M56.0494621,48.9886998 C60.4430905,48.9886998 64.0048419,52.5504512 64.0048419,56.9440797 C64.0048419,61.338231 60.4430905,64.8999824 56.0494621,64.8999824 C51.6558336,64.8999824 48.0935594,61.338231 48.0935594,56.9440797 C48.0935594,52.5504512 51.6558336,48.9886998 56.0494621,48.9886998" id="Fill-1-Copy" fill="#161616"></path>
                            <g id="Group-4" transform="translate(48.477099, 0.000000)" fill="#161616">
                                <g id="Group-3">
                                    <path d="M6.62991892,0 C10.291276,0 13.2594021,2.96812616 13.2594021,6.6294832 C13.2594021,10.291276 10.291276,13.2594021 6.62991892,13.2594021 C2.96856188,13.2594021 0,10.291276 0,6.6294832 C0,2.96812616 2.96856188,0 6.62991892,0" id="Fill-1-Copy-2"></path>
                                    <path d="M6.62970106,20.4211484 C8.03796367,20.4211484 9.18984148,21.5188622 9.27636423,22.9053197 L9.28158149,23.0730288 L9.28158149,38.9178103 C9.28158149,40.3824035 8.09429418,41.5696908 6.62970106,41.5696908 C5.22143845,41.5696908 4.06956065,40.4719769 3.98303789,39.0855194 L3.97782064,38.9178103 L3.97782064,23.0730288 C3.97782064,21.6084357 5.16510794,20.4211484 6.62970106,20.4211484 Z" id="Path-2" fill-rule="nonzero"></path>
                                </g>
                                <g id="Group-3" transform="translate(7.000000, 91.122229) scale(1, -1) translate(-7.000000, -91.122229) translate(0.000000, 70.122229)">
                                    <path d="M6.62991892,0 C10.291276,0 13.2594021,2.96812616 13.2594021,6.6294832 C13.2594021,10.291276 10.291276,13.2594021 6.62991892,13.2594021 C2.96856188,13.2594021 0,10.291276 0,6.6294832 C0,2.96812616 2.96856188,0 6.62991892,0" id="Fill-1-Copy-2"></path>
                                    <path d="M6.62970106,20.4211484 C8.03796367,20.4211484 9.18984148,21.5188622 9.27636423,22.9053197 L9.28158149,23.0730288 L9.28158149,38.9178103 C9.28158149,40.3824035 8.09429418,41.5696908 6.62970106,41.5696908 C5.22143845,41.5696908 4.06956065,40.4719769 3.98303789,39.0855194 L3.97782064,38.9178103 L3.97782064,23.0730288 C3.97782064,21.6084357 5.16510794,20.4211484 6.62970106,20.4211484 Z" id="Path-2" fill-rule="nonzero"></path>
                                </g>
                            </g>
                            <g id="Group-3" transform="translate(65.622229, 57.385728) rotate(-270.000000) translate(-65.622229, -57.385728) translate(58.622229, 10.885728)" fill="#161616">
                                <path d="M6.62991892,0 C10.291276,0 13.2594021,2.96812616 13.2594021,6.6294832 C13.2594021,10.291276 10.291276,13.2594021 6.62991892,13.2594021 C2.96856188,13.2594021 0,10.291276 0,6.6294832 C0,2.96812616 2.96856188,0 6.62991892,0" id="Fill-1-Copy-2"></path>
                                <g id="Group-2" transform="translate(3.303761, 20.073029)" fill-rule="nonzero">
                                    <path d="M3.32594021,0.348119576 C4.73420282,0.348119576 5.88608063,1.44583343 5.97260338,2.83229091 L5.97782064,3 L5.97782064,18.8447815 C5.97782064,20.3093747 4.79053333,21.496662 3.32594021,21.496662 C1.9176776,21.496662 0.765799796,20.3989481 0.67927704,19.0124906 L0.674059788,18.8447815 L0.674059788,3 C0.674059788,1.53540688 1.8613471,0.348119576 3.32594021,0.348119576 Z" id="Path-2"></path>
                                    <path d="M3.32594021,50.4795099 C4.73420282,50.4795099 5.88608063,51.5772237 5.97260338,52.9636812 L5.97782064,53.1313903 L5.97782064,68.9761719 C5.97782064,70.440765 4.79053333,71.6280523 3.32594021,71.6280523 C1.9176776,71.6280523 0.765799796,70.5303384 0.67927704,69.1438809 L0.674059788,68.9761719 L0.674059788,53.1313903 C0.674059788,51.6667972 1.8613471,50.4795099 3.32594021,50.4795099 Z" id="Path-2" transform="translate(3.325940, 61.053781) scale(1, -1) translate(-3.325940, -61.053781) "></path>
                                </g>
                            </g>
                            <g id="Group-3" transform="translate(80.835395, 31.810516) rotate(-315.000000) translate(-80.835395, -31.810516) translate(73.835395, 10.810516)" fill="#161616">
                                <path d="M6.62991892,0 C10.291276,0 13.2594021,2.96812616 13.2594021,6.6294832 C13.2594021,10.291276 10.291276,13.2594021 6.62991892,13.2594021 C2.96856188,13.2594021 0,10.291276 0,6.6294832 C0,2.96812616 2.96856188,0 6.62991892,0" id="Fill-1-Copy-2"></path>
                                <path d="M6.62970106,20.4211484 C8.03796367,20.4211484 9.18984148,21.5188622 9.27636423,22.9053197 L9.28158149,23.0730288 L9.28158149,38.9178103 C9.28158149,40.3824035 8.09429418,41.5696908 6.62970106,41.5696908 C5.22143845,41.5696908 4.06956065,40.4719769 3.98303789,39.0855194 L3.97782064,38.9178103 L3.97782064,23.0730288 C3.97782064,21.6084357 5.16510794,20.4211484 6.62970106,20.4211484 Z" id="Path-2" fill-rule="nonzero"></path>
                            </g>
                            <g id="Group-3" transform="translate(31.251491, 81.394420) scale(1, -1) rotate(315.000000) translate(-31.251491, -81.394420) translate(24.251491, 60.394420)" fill="#161616" fill-rule="nonzero">
                                <path d="M6.62970106,20.4211484 C8.03796367,20.4211484 9.18984148,21.5188622 9.27636423,22.9053197 L9.28158149,23.0730288 L9.28158149,38.9178103 C9.28158149,40.3824035 8.09429418,41.5696908 6.62970106,41.5696908 C5.22143845,41.5696908 4.06956065,40.4719769 3.98303789,39.0855194 L3.97782064,38.9178103 L3.97782064,23.0730288 C3.97782064,21.6084357 5.16510794,20.4211484 6.62970106,20.4211484 Z" id="Path-2"></path>
                            </g>
                            <g id="Group-3" transform="translate(80.311714, 82.744024) rotate(-585.000000) translate(-80.311714, -82.744024) translate(73.311714, 61.744024)" fill="#161616">
                                <path d="M6.62991892,0 C10.291276,0 13.2594021,2.96812616 13.2594021,6.6294832 C13.2594021,10.291276 10.291276,13.2594021 6.62991892,13.2594021 C2.96856188,13.2594021 0,10.291276 0,6.6294832 C0,2.96812616 2.96856188,0 6.62991892,0" id="Fill-1-Copy-2"></path>
                                <path d="M6.62970106,20.4211484 C8.03796367,20.4211484 9.18984148,21.5188622 9.27636423,22.9053197 L9.28158149,23.0730288 L9.28158149,38.9178103 C9.28158149,40.3824035 8.09429418,41.5696908 6.62970106,41.5696908 C5.22143845,41.5696908 4.06956065,40.4719769 3.98303789,39.0855194 L3.97782064,38.9178103 L3.97782064,23.0730288 C3.97782064,21.6084357 5.16510794,20.4211484 6.62970106,20.4211484 Z" id="Path-2" fill-rule="nonzero"></path>
                            </g>
                            <g id="Group-3" transform="translate(30.727810, 33.160120) scale(1, -1) rotate(585.000000) translate(-30.727810, -33.160120) translate(23.727810, 12.160120)" fill="#161616" fill-rule="nonzero">
                                <path d="M6.62970106,20.4211484 C8.03796367,20.4211484 9.18984148,21.5188622 9.27636423,22.9053197 L9.28158149,23.0730288 L9.28158149,38.9178103 C9.28158149,40.3824035 8.09429418,41.5696908 6.62970106,41.5696908 C5.22143845,41.5696908 4.06956065,40.4719769 3.98303789,39.0855194 L3.97782064,38.9178103 L3.97782064,23.0730288 C3.97782064,21.6084357 5.16510794,20.4211484 6.62970106,20.4211484 Z" id="Path-2"></path>
                            </g>
                            <g id="Group" transform="translate(60.029169, 35.819076) scale(1, -1) translate(-60.029169, -35.819076) translate(52.029169, 27.819076)">
                                <mask id="mask-10" fill="white">
                                    <use xlink:href="#path-9"></use>
                                </mask>
                                <g id="Clip-22"></g>
                            </g>
                        </g>
                        <g id="Group-6-Copy-4" opacity="0.4" transform="translate(266.000000, 134.500000)">
                            <path d="M56.0494621,48.9886998 C60.4430905,48.9886998 64.0048419,52.5504512 64.0048419,56.9440797 C64.0048419,61.338231 60.4430905,64.8999824 56.0494621,64.8999824 C51.6558336,64.8999824 48.0935594,61.338231 48.0935594,56.9440797 C48.0935594,52.5504512 51.6558336,48.9886998 56.0494621,48.9886998" id="Fill-1-Copy" fill="#161616"></path>
                            <g id="Group-4" transform="translate(48.477099, 0.000000)" fill="#161616">
                                <g id="Group-3">
                                    <path d="M6.62991892,0 C10.291276,0 13.2594021,2.96812616 13.2594021,6.6294832 C13.2594021,10.291276 10.291276,13.2594021 6.62991892,13.2594021 C2.96856188,13.2594021 0,10.291276 0,6.6294832 C0,2.96812616 2.96856188,0 6.62991892,0" id="Fill-1-Copy-2"></path>
                                    <path d="M6.62970106,20.4211484 C8.03796367,20.4211484 9.18984148,21.5188622 9.27636423,22.9053197 L9.28158149,23.0730288 L9.28158149,38.9178103 C9.28158149,40.3824035 8.09429418,41.5696908 6.62970106,41.5696908 C5.22143845,41.5696908 4.06956065,40.4719769 3.98303789,39.0855194 L3.97782064,38.9178103 L3.97782064,23.0730288 C3.97782064,21.6084357 5.16510794,20.4211484 6.62970106,20.4211484 Z" id="Path-2" fill-rule="nonzero"></path>
                                </g>
                                <g id="Group-3" transform="translate(7.000000, 91.122229) scale(1, -1) translate(-7.000000, -91.122229) translate(0.000000, 70.122229)">
                                    <path d="M6.62991892,0 C10.291276,0 13.2594021,2.96812616 13.2594021,6.6294832 C13.2594021,10.291276 10.291276,13.2594021 6.62991892,13.2594021 C2.96856188,13.2594021 0,10.291276 0,6.6294832 C0,2.96812616 2.96856188,0 6.62991892,0" id="Fill-1-Copy-2"></path>
                                    <path d="M6.62970106,20.4211484 C8.03796367,20.4211484 9.18984148,21.5188622 9.27636423,22.9053197 L9.28158149,23.0730288 L9.28158149,38.9178103 C9.28158149,40.3824035 8.09429418,41.5696908 6.62970106,41.5696908 C5.22143845,41.5696908 4.06956065,40.4719769 3.98303789,39.0855194 L3.97782064,38.9178103 L3.97782064,23.0730288 C3.97782064,21.6084357 5.16510794,20.4211484 6.62970106,20.4211484 Z" id="Path-2" fill-rule="nonzero"></path>
                                </g>
                            </g>
                            <g id="Group-3" transform="translate(65.622229, 57.385728) rotate(-270.000000) translate(-65.622229, -57.385728) translate(58.622229, 10.885728)" fill="#161616" fill-rule="nonzero">
                                <g id="Group-2" transform="translate(3.303761, 20.073029)">
                                    <path d="M3.32594021,0.348119576 C4.73420282,0.348119576 5.88608063,1.44583343 5.97260338,2.83229091 L5.97782064,3 L5.97782064,18.8447815 C5.97782064,20.3093747 4.79053333,21.496662 3.32594021,21.496662 C1.9176776,21.496662 0.765799796,20.3989481 0.67927704,19.0124906 L0.674059788,18.8447815 L0.674059788,3 C0.674059788,1.53540688 1.8613471,0.348119576 3.32594021,0.348119576 Z" id="Path-2"></path>
                                    <path d="M3.32594021,50.4795099 C4.73420282,50.4795099 5.88608063,51.5772237 5.97260338,52.9636812 L5.97782064,53.1313903 L5.97782064,68.9761719 C5.97782064,70.440765 4.79053333,71.6280523 3.32594021,71.6280523 C1.9176776,71.6280523 0.765799796,70.5303384 0.67927704,69.1438809 L0.674059788,68.9761719 L0.674059788,53.1313903 C0.674059788,51.6667972 1.8613471,50.4795099 3.32594021,50.4795099 Z" id="Path-2" transform="translate(3.325940, 61.053781) scale(1, -1) translate(-3.325940, -61.053781) "></path>
                                </g>
                            </g>
                            <g id="Group-3" transform="translate(7.000000, 57.385728) scale(1, -1) rotate(270.000000) translate(-7.000000, -57.385728) translate(0.000000, 50.385728)" fill="#161616">
                                <path d="M6.62991892,0 C10.291276,0 13.2594021,2.96812616 13.2594021,6.6294832 C13.2594021,10.291276 10.291276,13.2594021 6.62991892,13.2594021 C2.96856188,13.2594021 0,10.291276 0,6.6294832 C0,2.96812616 2.96856188,0 6.62991892,0" id="Fill-1-Copy-2"></path>
                            </g>
                            <g id="Group-3" transform="translate(80.835395, 31.810516) rotate(-315.000000) translate(-80.835395, -31.810516) translate(73.835395, 10.810516)" fill="#161616" fill-rule="nonzero">
                                <path d="M6.62970106,20.4211484 C8.03796367,20.4211484 9.18984148,21.5188622 9.27636423,22.9053197 L9.28158149,23.0730288 L9.28158149,38.9178103 C9.28158149,40.3824035 8.09429418,41.5696908 6.62970106,41.5696908 C5.22143845,41.5696908 4.06956065,40.4719769 3.98303789,39.0855194 L3.97782064,38.9178103 L3.97782064,23.0730288 C3.97782064,21.6084357 5.16510794,20.4211484 6.62970106,20.4211484 Z" id="Path-2"></path>
                            </g>
                            <g id="Group-3" transform="translate(31.251491, 81.394420) scale(1, -1) rotate(315.000000) translate(-31.251491, -81.394420) translate(24.251491, 60.394420)" fill="#161616">
                                <path d="M6.62991892,0 C10.291276,0 13.2594021,2.96812616 13.2594021,6.6294832 C13.2594021,10.291276 10.291276,13.2594021 6.62991892,13.2594021 C2.96856188,13.2594021 0,10.291276 0,6.6294832 C0,2.96812616 2.96856188,0 6.62991892,0" id="Fill-1-Copy-2"></path>
                                <path d="M6.62970106,20.4211484 C8.03796367,20.4211484 9.18984148,21.5188622 9.27636423,22.9053197 L9.28158149,23.0730288 L9.28158149,38.9178103 C9.28158149,40.3824035 8.09429418,41.5696908 6.62970106,41.5696908 C5.22143845,41.5696908 4.06956065,40.4719769 3.98303789,39.0855194 L3.97782064,38.9178103 L3.97782064,23.0730288 C3.97782064,21.6084357 5.16510794,20.4211484 6.62970106,20.4211484 Z" id="Path-2" fill-rule="nonzero"></path>
                            </g>
                            <g id="Group-3" transform="translate(80.311714, 82.744024) rotate(-585.000000) translate(-80.311714, -82.744024) translate(73.311714, 61.744024)" fill="#161616" fill-rule="nonzero">
                                <path d="M6.62970106,20.4211484 C8.03796367,20.4211484 9.18984148,21.5188622 9.27636423,22.9053197 L9.28158149,23.0730288 L9.28158149,38.9178103 C9.28158149,40.3824035 8.09429418,41.5696908 6.62970106,41.5696908 C5.22143845,41.5696908 4.06956065,40.4719769 3.98303789,39.0855194 L3.97782064,38.9178103 L3.97782064,23.0730288 C3.97782064,21.6084357 5.16510794,20.4211484 6.62970106,20.4211484 Z" id="Path-2"></path>
                            </g>
                            <g id="Group-3" transform="translate(30.727810, 33.160120) scale(1, -1) rotate(585.000000) translate(-30.727810, -33.160120) translate(23.727810, 12.160120)" fill="#161616">
                                <path d="M6.62991892,0 C10.291276,0 13.2594021,2.96812616 13.2594021,6.6294832 C13.2594021,10.291276 10.291276,13.2594021 6.62991892,13.2594021 C2.96856188,13.2594021 0,10.291276 0,6.6294832 C0,2.96812616 2.96856188,0 6.62991892,0" id="Fill-1-Copy-2"></path>
                                <path d="M6.62970106,20.4211484 C8.03796367,20.4211484 9.18984148,21.5188622 9.27636423,22.9053197 L9.28158149,23.0730288 L9.28158149,38.9178103 C9.28158149,40.3824035 8.09429418,41.5696908 6.62970106,41.5696908 C5.22143845,41.5696908 4.06956065,40.4719769 3.98303789,39.0855194 L3.97782064,38.9178103 L3.97782064,23.0730288 C3.97782064,21.6084357 5.16510794,20.4211484 6.62970106,20.4211484 Z" id="Path-2" fill-rule="nonzero"></path>
                            </g>
                            <g id="Group" transform="translate(60.029169, 35.819076) scale(1, -1) translate(-60.029169, -35.819076) translate(52.029169, 27.819076)">
                                <mask id="mask-12" fill="white">
                                    <use xlink:href="#path-11"></use>
                                </mask>
                                <g id="Clip-22"></g>
                            </g>
                        </g>
                        <g id="Group-6-Copy-6" opacity="0.1" transform="translate(266.000000, 0.000000)">
                            <path d="M56.0494621,48.9886998 C60.4430905,48.9886998 64.0048419,52.5504512 64.0048419,56.9440797 C64.0048419,61.338231 60.4430905,64.8999824 56.0494621,64.8999824 C51.6558336,64.8999824 48.0935594,61.338231 48.0935594,56.9440797 C48.0935594,52.5504512 51.6558336,48.9886998 56.0494621,48.9886998" id="Fill-1-Copy" fill="#161616"></path>
                            <g id="Group-4" transform="translate(48.477099, 0.000000)" fill="#161616">
                                <g id="Group-3">
                                    <path d="M6.62991892,0 C10.291276,0 13.2594021,2.96812616 13.2594021,6.6294832 C13.2594021,10.291276 10.291276,13.2594021 6.62991892,13.2594021 C2.96856188,13.2594021 0,10.291276 0,6.6294832 C0,2.96812616 2.96856188,0 6.62991892,0" id="Fill-1-Copy-2"></path>
                                    <path d="M6.62970106,20.4211484 C8.03796367,20.4211484 9.18984148,21.5188622 9.27636423,22.9053197 L9.28158149,23.0730288 L9.28158149,38.9178103 C9.28158149,40.3824035 8.09429418,41.5696908 6.62970106,41.5696908 C5.22143845,41.5696908 4.06956065,40.4719769 3.98303789,39.0855194 L3.97782064,38.9178103 L3.97782064,23.0730288 C3.97782064,21.6084357 5.16510794,20.4211484 6.62970106,20.4211484 Z" id="Path-2" fill-rule="nonzero"></path>
                                </g>
                                <g id="Group-3" transform="translate(7.000000, 91.122229) scale(1, -1) translate(-7.000000, -91.122229) translate(0.000000, 70.122229)">
                                    <path d="M6.62991892,0 C10.291276,0 13.2594021,2.96812616 13.2594021,6.6294832 C13.2594021,10.291276 10.291276,13.2594021 6.62991892,13.2594021 C2.96856188,13.2594021 0,10.291276 0,6.6294832 C0,2.96812616 2.96856188,0 6.62991892,0" id="Fill-1-Copy-2"></path>
                                    <path d="M6.62970106,20.4211484 C8.03796367,20.4211484 9.18984148,21.5188622 9.27636423,22.9053197 L9.28158149,23.0730288 L9.28158149,38.9178103 C9.28158149,40.3824035 8.09429418,41.5696908 6.62970106,41.5696908 C5.22143845,41.5696908 4.06956065,40.4719769 3.98303789,39.0855194 L3.97782064,38.9178103 L3.97782064,23.0730288 C3.97782064,21.6084357 5.16510794,20.4211484 6.62970106,20.4211484 Z" id="Path-2" fill-rule="nonzero"></path>
                                </g>
                            </g>
                            <g id="Group-3" transform="translate(65.622229, 57.385728) rotate(-270.000000) translate(-65.622229, -57.385728) translate(58.622229, 10.885728)" fill="#161616" fill-rule="nonzero">
                                <g id="Group-2" transform="translate(3.303761, 20.073029)">
                                    <path d="M3.32594021,0.348119576 C4.73420282,0.348119576 5.88608063,1.44583343 5.97260338,2.83229091 L5.97782064,3 L5.97782064,18.8447815 C5.97782064,20.3093747 4.79053333,21.496662 3.32594021,21.496662 C1.9176776,21.496662 0.765799796,20.3989481 0.67927704,19.0124906 L0.674059788,18.8447815 L0.674059788,3 C0.674059788,1.53540688 1.8613471,0.348119576 3.32594021,0.348119576 Z" id="Path-2"></path>
                                    <path d="M3.32594021,50.4795099 C4.73420282,50.4795099 5.88608063,51.5772237 5.97260338,52.9636812 L5.97782064,53.1313903 L5.97782064,68.9761719 C5.97782064,70.440765 4.79053333,71.6280523 3.32594021,71.6280523 C1.9176776,71.6280523 0.765799796,70.5303384 0.67927704,69.1438809 L0.674059788,68.9761719 L0.674059788,53.1313903 C0.674059788,51.6667972 1.8613471,50.4795099 3.32594021,50.4795099 Z" id="Path-2" transform="translate(3.325940, 61.053781) scale(1, -1) translate(-3.325940, -61.053781) "></path>
                                </g>
                            </g>
                            <g id="Group-3" transform="translate(7.000000, 57.385728) scale(1, -1) rotate(270.000000) translate(-7.000000, -57.385728) translate(0.000000, 50.385728)" fill="#161616">
                                <path d="M6.62991892,0 C10.291276,0 13.2594021,2.96812616 13.2594021,6.6294832 C13.2594021,10.291276 10.291276,13.2594021 6.62991892,13.2594021 C2.96856188,13.2594021 0,10.291276 0,6.6294832 C0,2.96812616 2.96856188,0 6.62991892,0" id="Fill-1-Copy-2"></path>
                            </g>
                            <g id="Group-3" transform="translate(80.835395, 31.810516) rotate(-315.000000) translate(-80.835395, -31.810516) translate(73.835395, 10.810516)" fill="#161616" fill-rule="nonzero">
                                <path d="M6.62970106,20.4211484 C8.03796367,20.4211484 9.18984148,21.5188622 9.27636423,22.9053197 L9.28158149,23.0730288 L9.28158149,38.9178103 C9.28158149,40.3824035 8.09429418,41.5696908 6.62970106,41.5696908 C5.22143845,41.5696908 4.06956065,40.4719769 3.98303789,39.0855194 L3.97782064,38.9178103 L3.97782064,23.0730288 C3.97782064,21.6084357 5.16510794,20.4211484 6.62970106,20.4211484 Z" id="Path-2"></path>
                            </g>
                            <g id="Group-3" transform="translate(31.251491, 81.394420) scale(1, -1) rotate(315.000000) translate(-31.251491, -81.394420) translate(24.251491, 60.394420)" fill="#161616">
                                <path d="M6.62991892,0 C10.291276,0 13.2594021,2.96812616 13.2594021,6.6294832 C13.2594021,10.291276 10.291276,13.2594021 6.62991892,13.2594021 C2.96856188,13.2594021 0,10.291276 0,6.6294832 C0,2.96812616 2.96856188,0 6.62991892,0" id="Fill-1-Copy-2"></path>
                                <path d="M6.62970106,20.4211484 C8.03796367,20.4211484 9.18984148,21.5188622 9.27636423,22.9053197 L9.28158149,23.0730288 L9.28158149,38.9178103 C9.28158149,40.3824035 8.09429418,41.5696908 6.62970106,41.5696908 C5.22143845,41.5696908 4.06956065,40.4719769 3.98303789,39.0855194 L3.97782064,38.9178103 L3.97782064,23.0730288 C3.97782064,21.6084357 5.16510794,20.4211484 6.62970106,20.4211484 Z" id="Path-2" fill-rule="nonzero"></path>
                            </g>
                            <g id="Group-3" transform="translate(80.311714, 82.744024) rotate(-585.000000) translate(-80.311714, -82.744024) translate(73.311714, 61.744024)" fill="#161616" fill-rule="nonzero">
                                <path d="M6.62970106,20.4211484 C8.03796367,20.4211484 9.18984148,21.5188622 9.27636423,22.9053197 L9.28158149,23.0730288 L9.28158149,38.9178103 C9.28158149,40.3824035 8.09429418,41.5696908 6.62970106,41.5696908 C5.22143845,41.5696908 4.06956065,40.4719769 3.98303789,39.0855194 L3.97782064,38.9178103 L3.97782064,23.0730288 C3.97782064,21.6084357 5.16510794,20.4211484 6.62970106,20.4211484 Z" id="Path-2"></path>
                            </g>
                            <g id="Group-3" transform="translate(30.727810, 33.160120) scale(1, -1) rotate(585.000000) translate(-30.727810, -33.160120) translate(23.727810, 12.160120)" fill="#161616">
                                <path d="M6.62991892,0 C10.291276,0 13.2594021,2.96812616 13.2594021,6.6294832 C13.2594021,10.291276 10.291276,13.2594021 6.62991892,13.2594021 C2.96856188,13.2594021 0,10.291276 0,6.6294832 C0,2.96812616 2.96856188,0 6.62991892,0" id="Fill-1-Copy-2"></path>
                                <path d="M6.62970106,20.4211484 C8.03796367,20.4211484 9.18984148,21.5188622 9.27636423,22.9053197 L9.28158149,23.0730288 L9.28158149,38.9178103 C9.28158149,40.3824035 8.09429418,41.5696908 6.62970106,41.5696908 C5.22143845,41.5696908 4.06956065,40.4719769 3.98303789,39.0855194 L3.97782064,38.9178103 L3.97782064,23.0730288 C3.97782064,21.6084357 5.16510794,20.4211484 6.62970106,20.4211484 Z" id="Path-2" fill-rule="nonzero"></path>
                            </g>
                            <g id="Group" transform="translate(60.029169, 35.819076) scale(1, -1) translate(-60.029169, -35.819076) translate(52.029169, 27.819076)">
                                <mask id="mask-14" fill="white">
                                    <use xlink:href="#path-13"></use>
                                </mask>
                                <g id="Clip-22"></g>
                            </g>
                        </g>
                        <g id="Group-6-Copy-8" opacity="0.1" transform="translate(266.000000, 270.500000)">
                            <path d="M56.0494621,48.9886998 C60.4430905,48.9886998 64.0048419,52.5504512 64.0048419,56.9440797 C64.0048419,61.338231 60.4430905,64.8999824 56.0494621,64.8999824 C51.6558336,64.8999824 48.0935594,61.338231 48.0935594,56.9440797 C48.0935594,52.5504512 51.6558336,48.9886998 56.0494621,48.9886998" id="Fill-1-Copy" fill="#161616"></path>
                            <g id="Group-4" transform="translate(48.477099, 0.000000)" fill="#161616">
                                <g id="Group-3">
                                    <path d="M6.62991892,0 C10.291276,0 13.2594021,2.96812616 13.2594021,6.6294832 C13.2594021,10.291276 10.291276,13.2594021 6.62991892,13.2594021 C2.96856188,13.2594021 0,10.291276 0,6.6294832 C0,2.96812616 2.96856188,0 6.62991892,0" id="Fill-1-Copy-2"></path>
                                    <path d="M6.62970106,20.4211484 C8.03796367,20.4211484 9.18984148,21.5188622 9.27636423,22.9053197 L9.28158149,23.0730288 L9.28158149,38.9178103 C9.28158149,40.3824035 8.09429418,41.5696908 6.62970106,41.5696908 C5.22143845,41.5696908 4.06956065,40.4719769 3.98303789,39.0855194 L3.97782064,38.9178103 L3.97782064,23.0730288 C3.97782064,21.6084357 5.16510794,20.4211484 6.62970106,20.4211484 Z" id="Path-2" fill-rule="nonzero"></path>
                                </g>
                                <g id="Group-3" transform="translate(7.000000, 91.122229) scale(1, -1) translate(-7.000000, -91.122229) translate(0.000000, 70.122229)">
                                    <path d="M6.62991892,0 C10.291276,0 13.2594021,2.96812616 13.2594021,6.6294832 C13.2594021,10.291276 10.291276,13.2594021 6.62991892,13.2594021 C2.96856188,13.2594021 0,10.291276 0,6.6294832 C0,2.96812616 2.96856188,0 6.62991892,0" id="Fill-1-Copy-2"></path>
                                    <path d="M6.62970106,20.4211484 C8.03796367,20.4211484 9.18984148,21.5188622 9.27636423,22.9053197 L9.28158149,23.0730288 L9.28158149,38.9178103 C9.28158149,40.3824035 8.09429418,41.5696908 6.62970106,41.5696908 C5.22143845,41.5696908 4.06956065,40.4719769 3.98303789,39.0855194 L3.97782064,38.9178103 L3.97782064,23.0730288 C3.97782064,21.6084357 5.16510794,20.4211484 6.62970106,20.4211484 Z" id="Path-2" fill-rule="nonzero"></path>
                                </g>
                            </g>
                            <g id="Group-3" transform="translate(65.622229, 57.385728) rotate(-270.000000) translate(-65.622229, -57.385728) translate(58.622229, 10.885728)" fill="#161616" fill-rule="nonzero">
                                <g id="Group-2" transform="translate(3.303761, 20.073029)">
                                    <path d="M3.32594021,0.348119576 C4.73420282,0.348119576 5.88608063,1.44583343 5.97260338,2.83229091 L5.97782064,3 L5.97782064,18.8447815 C5.97782064,20.3093747 4.79053333,21.496662 3.32594021,21.496662 C1.9176776,21.496662 0.765799796,20.3989481 0.67927704,19.0124906 L0.674059788,18.8447815 L0.674059788,3 C0.674059788,1.53540688 1.8613471,0.348119576 3.32594021,0.348119576 Z" id="Path-2"></path>
                                    <path d="M3.32594021,50.4795099 C4.73420282,50.4795099 5.88608063,51.5772237 5.97260338,52.9636812 L5.97782064,53.1313903 L5.97782064,68.9761719 C5.97782064,70.440765 4.79053333,71.6280523 3.32594021,71.6280523 C1.9176776,71.6280523 0.765799796,70.5303384 0.67927704,69.1438809 L0.674059788,68.9761719 L0.674059788,53.1313903 C0.674059788,51.6667972 1.8613471,50.4795099 3.32594021,50.4795099 Z" id="Path-2" transform="translate(3.325940, 61.053781) scale(1, -1) translate(-3.325940, -61.053781) "></path>
                                </g>
                            </g>
                            <g id="Group-3" transform="translate(7.000000, 57.385728) scale(1, -1) rotate(270.000000) translate(-7.000000, -57.385728) translate(0.000000, 50.385728)" fill="#161616">
                                <path d="M6.62991892,0 C10.291276,0 13.2594021,2.96812616 13.2594021,6.6294832 C13.2594021,10.291276 10.291276,13.2594021 6.62991892,13.2594021 C2.96856188,13.2594021 0,10.291276 0,6.6294832 C0,2.96812616 2.96856188,0 6.62991892,0" id="Fill-1-Copy-2"></path>
                            </g>
                            <g id="Group-3" transform="translate(80.835395, 31.810516) rotate(-315.000000) translate(-80.835395, -31.810516) translate(73.835395, 10.810516)" fill="#161616" fill-rule="nonzero">
                                <path d="M6.62970106,20.4211484 C8.03796367,20.4211484 9.18984148,21.5188622 9.27636423,22.9053197 L9.28158149,23.0730288 L9.28158149,38.9178103 C9.28158149,40.3824035 8.09429418,41.5696908 6.62970106,41.5696908 C5.22143845,41.5696908 4.06956065,40.4719769 3.98303789,39.0855194 L3.97782064,38.9178103 L3.97782064,23.0730288 C3.97782064,21.6084357 5.16510794,20.4211484 6.62970106,20.4211484 Z" id="Path-2"></path>
                            </g>
                            <g id="Group-3" transform="translate(31.251491, 81.394420) scale(1, -1) rotate(315.000000) translate(-31.251491, -81.394420) translate(24.251491, 60.394420)" fill="#161616">
                                <path d="M6.62991892,0 C10.291276,0 13.2594021,2.96812616 13.2594021,6.6294832 C13.2594021,10.291276 10.291276,13.2594021 6.62991892,13.2594021 C2.96856188,13.2594021 0,10.291276 0,6.6294832 C0,2.96812616 2.96856188,0 6.62991892,0" id="Fill-1-Copy-2"></path>
                                <path d="M6.62970106,20.4211484 C8.03796367,20.4211484 9.18984148,21.5188622 9.27636423,22.9053197 L9.28158149,23.0730288 L9.28158149,38.9178103 C9.28158149,40.3824035 8.09429418,41.5696908 6.62970106,41.5696908 C5.22143845,41.5696908 4.06956065,40.4719769 3.98303789,39.0855194 L3.97782064,38.9178103 L3.97782064,23.0730288 C3.97782064,21.6084357 5.16510794,20.4211484 6.62970106,20.4211484 Z" id="Path-2" fill-rule="nonzero"></path>
                            </g>
                            <g id="Group-3" transform="translate(80.311714, 82.744024) rotate(-585.000000) translate(-80.311714, -82.744024) translate(73.311714, 61.744024)" fill="#161616" fill-rule="nonzero">
                                <path d="M6.62970106,20.4211484 C8.03796367,20.4211484 9.18984148,21.5188622 9.27636423,22.9053197 L9.28158149,23.0730288 L9.28158149,38.9178103 C9.28158149,40.3824035 8.09429418,41.5696908 6.62970106,41.5696908 C5.22143845,41.5696908 4.06956065,40.4719769 3.98303789,39.0855194 L3.97782064,38.9178103 L3.97782064,23.0730288 C3.97782064,21.6084357 5.16510794,20.4211484 6.62970106,20.4211484 Z" id="Path-2"></path>
                            </g>
                            <g id="Group-3" transform="translate(30.727810, 33.160120) scale(1, -1) rotate(585.000000) translate(-30.727810, -33.160120) translate(23.727810, 12.160120)" fill="#161616">
                                <path d="M6.62991892,0 C10.291276,0 13.2594021,2.96812616 13.2594021,6.6294832 C13.2594021,10.291276 10.291276,13.2594021 6.62991892,13.2594021 C2.96856188,13.2594021 0,10.291276 0,6.6294832 C0,2.96812616 2.96856188,0 6.62991892,0" id="Fill-1-Copy-2"></path>
                                <path d="M6.62970106,20.4211484 C8.03796367,20.4211484 9.18984148,21.5188622 9.27636423,22.9053197 L9.28158149,23.0730288 L9.28158149,38.9178103 C9.28158149,40.3824035 8.09429418,41.5696908 6.62970106,41.5696908 C5.22143845,41.5696908 4.06956065,40.4719769 3.98303789,39.0855194 L3.97782064,38.9178103 L3.97782064,23.0730288 C3.97782064,21.6084357 5.16510794,20.4211484 6.62970106,20.4211484 Z" id="Path-2" fill-rule="nonzero"></path>
                            </g>
                            <g id="Group" transform="translate(60.029169, 35.819076) scale(1, -1) translate(-60.029169, -35.819076) translate(52.029169, 27.819076)">
                                <mask id="mask-16" fill="white">
                                    <use xlink:href="#path-15"></use>
                                </mask>
                                <g id="Clip-22"></g>
                            </g>
                        </g>
                        <g id="Group-6-Copy" opacity="0.4" transform="translate(133.000000, 0.000000)">
                            <path d="M56.0494621,48.9886998 C60.4430905,48.9886998 64.0048419,52.5504512 64.0048419,56.9440797 C64.0048419,61.338231 60.4430905,64.8999824 56.0494621,64.8999824 C51.6558336,64.8999824 48.0935594,61.338231 48.0935594,56.9440797 C48.0935594,52.5504512 51.6558336,48.9886998 56.0494621,48.9886998" id="Fill-1-Copy" fill="#161616"></path>
                            <g id="Group-4" transform="translate(48.477099, 0.000000)" fill="#161616">
                                <g id="Group-3">
                                    <path d="M6.62991892,0 C10.291276,0 13.2594021,2.96812616 13.2594021,6.6294832 C13.2594021,10.291276 10.291276,13.2594021 6.62991892,13.2594021 C2.96856188,13.2594021 0,10.291276 0,6.6294832 C0,2.96812616 2.96856188,0 6.62991892,0" id="Fill-1-Copy-2"></path>
                                    <path d="M6.62970106,20.4211484 C8.03796367,20.4211484 9.18984148,21.5188622 9.27636423,22.9053197 L9.28158149,23.0730288 L9.28158149,38.9178103 C9.28158149,40.3824035 8.09429418,41.5696908 6.62970106,41.5696908 C5.22143845,41.5696908 4.06956065,40.4719769 3.98303789,39.0855194 L3.97782064,38.9178103 L3.97782064,23.0730288 C3.97782064,21.6084357 5.16510794,20.4211484 6.62970106,20.4211484 Z" id="Path-2" fill-rule="nonzero"></path>
                                </g>
                                <g id="Group-3" transform="translate(7.000000, 91.122229) scale(1, -1) translate(-7.000000, -91.122229) translate(0.000000, 70.122229)">
                                    <path d="M6.62991892,0 C10.291276,0 13.2594021,2.96812616 13.2594021,6.6294832 C13.2594021,10.291276 10.291276,13.2594021 6.62991892,13.2594021 C2.96856188,13.2594021 0,10.291276 0,6.6294832 C0,2.96812616 2.96856188,0 6.62991892,0" id="Fill-1-Copy-2"></path>
                                    <path d="M6.62970106,20.4211484 C8.03796367,20.4211484 9.18984148,21.5188622 9.27636423,22.9053197 L9.28158149,23.0730288 L9.28158149,38.9178103 C9.28158149,40.3824035 8.09429418,41.5696908 6.62970106,41.5696908 C5.22143845,41.5696908 4.06956065,40.4719769 3.98303789,39.0855194 L3.97782064,38.9178103 L3.97782064,23.0730288 C3.97782064,21.6084357 5.16510794,20.4211484 6.62970106,20.4211484 Z" id="Path-2" fill-rule="nonzero"></path>
                                </g>
                            </g>
                            <g id="Group-3" transform="translate(65.622229, 57.385728) rotate(-270.000000) translate(-65.622229, -57.385728) translate(58.622229, 10.885728)" fill="#161616">
                                <path d="M6.62991892,0 C10.291276,0 13.2594021,2.96812616 13.2594021,6.6294832 C13.2594021,10.291276 10.291276,13.2594021 6.62991892,13.2594021 C2.96856188,13.2594021 0,10.291276 0,6.6294832 C0,2.96812616 2.96856188,0 6.62991892,0" id="Fill-1-Copy-2"></path>
                                <g id="Group-2" transform="translate(3.303761, 20.073029)" fill-rule="nonzero">
                                    <path d="M3.32594021,0.348119576 C4.73420282,0.348119576 5.88608063,1.44583343 5.97260338,2.83229091 L5.97782064,3 L5.97782064,18.8447815 C5.97782064,20.3093747 4.79053333,21.496662 3.32594021,21.496662 C1.9176776,21.496662 0.765799796,20.3989481 0.67927704,19.0124906 L0.674059788,18.8447815 L0.674059788,3 C0.674059788,1.53540688 1.8613471,0.348119576 3.32594021,0.348119576 Z" id="Path-2"></path>
                                    <path d="M3.32594021,50.4795099 C4.73420282,50.4795099 5.88608063,51.5772237 5.97260338,52.9636812 L5.97782064,53.1313903 L5.97782064,68.9761719 C5.97782064,70.440765 4.79053333,71.6280523 3.32594021,71.6280523 C1.9176776,71.6280523 0.765799796,70.5303384 0.67927704,69.1438809 L0.674059788,68.9761719 L0.674059788,53.1313903 C0.674059788,51.6667972 1.8613471,50.4795099 3.32594021,50.4795099 Z" id="Path-2" transform="translate(3.325940, 61.053781) scale(1, -1) translate(-3.325940, -61.053781) "></path>
                                </g>
                            </g>
                            <g id="Group-3" transform="translate(7.000000, 57.385728) scale(1, -1) rotate(270.000000) translate(-7.000000, -57.385728) translate(0.000000, 50.385728)" fill="#161616">
                                <path d="M6.62991892,0 C10.291276,0 13.2594021,2.96812616 13.2594021,6.6294832 C13.2594021,10.291276 10.291276,13.2594021 6.62991892,13.2594021 C2.96856188,13.2594021 0,10.291276 0,6.6294832 C0,2.96812616 2.96856188,0 6.62991892,0" id="Fill-1-Copy-2"></path>
                            </g>
                            <g id="Group-3" transform="translate(80.835395, 31.810516) rotate(-315.000000) translate(-80.835395, -31.810516) translate(73.835395, 10.810516)" fill="#161616">
                                <path d="M6.62991892,0 C10.291276,0 13.2594021,2.96812616 13.2594021,6.6294832 C13.2594021,10.291276 10.291276,13.2594021 6.62991892,13.2594021 C2.96856188,13.2594021 0,10.291276 0,6.6294832 C0,2.96812616 2.96856188,0 6.62991892,0" id="Fill-1-Copy-2"></path>
                                <path d="M6.62970106,20.4211484 C8.03796367,20.4211484 9.18984148,21.5188622 9.27636423,22.9053197 L9.28158149,23.0730288 L9.28158149,38.9178103 C9.28158149,40.3824035 8.09429418,41.5696908 6.62970106,41.5696908 C5.22143845,41.5696908 4.06956065,40.4719769 3.98303789,39.0855194 L3.97782064,38.9178103 L3.97782064,23.0730288 C3.97782064,21.6084357 5.16510794,20.4211484 6.62970106,20.4211484 Z" id="Path-2" fill-rule="nonzero"></path>
                            </g>
                            <g id="Group-3" transform="translate(31.251491, 81.394420) scale(1, -1) rotate(315.000000) translate(-31.251491, -81.394420) translate(24.251491, 60.394420)" fill="#161616">
                                <path d="M6.62991892,0 C10.291276,0 13.2594021,2.96812616 13.2594021,6.6294832 C13.2594021,10.291276 10.291276,13.2594021 6.62991892,13.2594021 C2.96856188,13.2594021 0,10.291276 0,6.6294832 C0,2.96812616 2.96856188,0 6.62991892,0" id="Fill-1-Copy-2"></path>
                                <path d="M6.62970106,20.4211484 C8.03796367,20.4211484 9.18984148,21.5188622 9.27636423,22.9053197 L9.28158149,23.0730288 L9.28158149,38.9178103 C9.28158149,40.3824035 8.09429418,41.5696908 6.62970106,41.5696908 C5.22143845,41.5696908 4.06956065,40.4719769 3.98303789,39.0855194 L3.97782064,38.9178103 L3.97782064,23.0730288 C3.97782064,21.6084357 5.16510794,20.4211484 6.62970106,20.4211484 Z" id="Path-2" fill-rule="nonzero"></path>
                            </g>
                            <g id="Group-3" transform="translate(80.311714, 82.744024) rotate(-585.000000) translate(-80.311714, -82.744024) translate(73.311714, 61.744024)" fill="#161616">
                                <path d="M6.62991892,0 C10.291276,0 13.2594021,2.96812616 13.2594021,6.6294832 C13.2594021,10.291276 10.291276,13.2594021 6.62991892,13.2594021 C2.96856188,13.2594021 0,10.291276 0,6.6294832 C0,2.96812616 2.96856188,0 6.62991892,0" id="Fill-1-Copy-2"></path>
                                <path d="M6.62970106,20.4211484 C8.03796367,20.4211484 9.18984148,21.5188622 9.27636423,22.9053197 L9.28158149,23.0730288 L9.28158149,38.9178103 C9.28158149,40.3824035 8.09429418,41.5696908 6.62970106,41.5696908 C5.22143845,41.5696908 4.06956065,40.4719769 3.98303789,39.0855194 L3.97782064,38.9178103 L3.97782064,23.0730288 C3.97782064,21.6084357 5.16510794,20.4211484 6.62970106,20.4211484 Z" id="Path-2" fill-rule="nonzero"></path>
                            </g>
                            <g id="Group-3" transform="translate(30.727810, 33.160120) scale(1, -1) rotate(585.000000) translate(-30.727810, -33.160120) translate(23.727810, 12.160120)" fill="#161616">
                                <path d="M6.62991892,0 C10.291276,0 13.2594021,2.96812616 13.2594021,6.6294832 C13.2594021,10.291276 10.291276,13.2594021 6.62991892,13.2594021 C2.96856188,13.2594021 0,10.291276 0,6.6294832 C0,2.96812616 2.96856188,0 6.62991892,0" id="Fill-1-Copy-2"></path>
                                <path d="M6.62970106,20.4211484 C8.03796367,20.4211484 9.18984148,21.5188622 9.27636423,22.9053197 L9.28158149,23.0730288 L9.28158149,38.9178103 C9.28158149,40.3824035 8.09429418,41.5696908 6.62970106,41.5696908 C5.22143845,41.5696908 4.06956065,40.4719769 3.98303789,39.0855194 L3.97782064,38.9178103 L3.97782064,23.0730288 C3.97782064,21.6084357 5.16510794,20.4211484 6.62970106,20.4211484 Z" id="Path-2" fill-rule="nonzero"></path>
                            </g>
                            <g id="Group" transform="translate(60.029169, 35.819076) scale(1, -1) translate(-60.029169, -35.819076) translate(52.029169, 27.819076)">
                                <mask id="mask-18" fill="white">
                                    <use xlink:href="#path-17"></use>
                                </mask>
                                <g id="Clip-22"></g>
                            </g>
                        </g>
                        <g id="Group-6-Copy-2" opacity="0.4" transform="translate(133.000000, 270.500000)">
                            <path d="M56.0494621,48.9886998 C60.4430905,48.9886998 64.0048419,52.5504512 64.0048419,56.9440797 C64.0048419,61.338231 60.4430905,64.8999824 56.0494621,64.8999824 C51.6558336,64.8999824 48.0935594,61.338231 48.0935594,56.9440797 C48.0935594,52.5504512 51.6558336,48.9886998 56.0494621,48.9886998" id="Fill-1-Copy" fill="#161616"></path>
                            <g id="Group-4" transform="translate(48.477099, 0.000000)" fill="#161616">
                                <g id="Group-3">
                                    <path d="M6.62991892,0 C10.291276,0 13.2594021,2.96812616 13.2594021,6.6294832 C13.2594021,10.291276 10.291276,13.2594021 6.62991892,13.2594021 C2.96856188,13.2594021 0,10.291276 0,6.6294832 C0,2.96812616 2.96856188,0 6.62991892,0" id="Fill-1-Copy-2"></path>
                                    <path d="M6.62970106,20.4211484 C8.03796367,20.4211484 9.18984148,21.5188622 9.27636423,22.9053197 L9.28158149,23.0730288 L9.28158149,38.9178103 C9.28158149,40.3824035 8.09429418,41.5696908 6.62970106,41.5696908 C5.22143845,41.5696908 4.06956065,40.4719769 3.98303789,39.0855194 L3.97782064,38.9178103 L3.97782064,23.0730288 C3.97782064,21.6084357 5.16510794,20.4211484 6.62970106,20.4211484 Z" id="Path-2" fill-rule="nonzero"></path>
                                </g>
                                <g id="Group-3" transform="translate(7.000000, 91.122229) scale(1, -1) translate(-7.000000, -91.122229) translate(0.000000, 70.122229)">
                                    <path d="M6.62991892,0 C10.291276,0 13.2594021,2.96812616 13.2594021,6.6294832 C13.2594021,10.291276 10.291276,13.2594021 6.62991892,13.2594021 C2.96856188,13.2594021 0,10.291276 0,6.6294832 C0,2.96812616 2.96856188,0 6.62991892,0" id="Fill-1-Copy-2"></path>
                                    <path d="M6.62970106,20.4211484 C8.03796367,20.4211484 9.18984148,21.5188622 9.27636423,22.9053197 L9.28158149,23.0730288 L9.28158149,38.9178103 C9.28158149,40.3824035 8.09429418,41.5696908 6.62970106,41.5696908 C5.22143845,41.5696908 4.06956065,40.4719769 3.98303789,39.0855194 L3.97782064,38.9178103 L3.97782064,23.0730288 C3.97782064,21.6084357 5.16510794,20.4211484 6.62970106,20.4211484 Z" id="Path-2" fill-rule="nonzero"></path>
                                </g>
                            </g>
                            <g id="Group-3" transform="translate(65.622229, 57.385728) rotate(-270.000000) translate(-65.622229, -57.385728) translate(58.622229, 10.885728)" fill="#161616">
                                <path d="M6.62991892,0 C10.291276,0 13.2594021,2.96812616 13.2594021,6.6294832 C13.2594021,10.291276 10.291276,13.2594021 6.62991892,13.2594021 C2.96856188,13.2594021 0,10.291276 0,6.6294832 C0,2.96812616 2.96856188,0 6.62991892,0" id="Fill-1-Copy-2"></path>
                                <g id="Group-2" transform="translate(3.303761, 20.073029)" fill-rule="nonzero">
                                    <path d="M3.32594021,0.348119576 C4.73420282,0.348119576 5.88608063,1.44583343 5.97260338,2.83229091 L5.97782064,3 L5.97782064,18.8447815 C5.97782064,20.3093747 4.79053333,21.496662 3.32594021,21.496662 C1.9176776,21.496662 0.765799796,20.3989481 0.67927704,19.0124906 L0.674059788,18.8447815 L0.674059788,3 C0.674059788,1.53540688 1.8613471,0.348119576 3.32594021,0.348119576 Z" id="Path-2"></path>
                                    <path d="M3.32594021,50.4795099 C4.73420282,50.4795099 5.88608063,51.5772237 5.97260338,52.9636812 L5.97782064,53.1313903 L5.97782064,68.9761719 C5.97782064,70.440765 4.79053333,71.6280523 3.32594021,71.6280523 C1.9176776,71.6280523 0.765799796,70.5303384 0.67927704,69.1438809 L0.674059788,68.9761719 L0.674059788,53.1313903 C0.674059788,51.6667972 1.8613471,50.4795099 3.32594021,50.4795099 Z" id="Path-2" transform="translate(3.325940, 61.053781) scale(1, -1) translate(-3.325940, -61.053781) "></path>
                                </g>
                            </g>
                            <g id="Group-3" transform="translate(7.000000, 57.385728) scale(1, -1) rotate(270.000000) translate(-7.000000, -57.385728) translate(0.000000, 50.385728)" fill="#161616">
                                <path d="M6.62991892,0 C10.291276,0 13.2594021,2.96812616 13.2594021,6.6294832 C13.2594021,10.291276 10.291276,13.2594021 6.62991892,13.2594021 C2.96856188,13.2594021 0,10.291276 0,6.6294832 C0,2.96812616 2.96856188,0 6.62991892,0" id="Fill-1-Copy-2"></path>
                            </g>
                            <g id="Group-3" transform="translate(80.835395, 31.810516) rotate(-315.000000) translate(-80.835395, -31.810516) translate(73.835395, 10.810516)" fill="#161616">
                                <path d="M6.62991892,0 C10.291276,0 13.2594021,2.96812616 13.2594021,6.6294832 C13.2594021,10.291276 10.291276,13.2594021 6.62991892,13.2594021 C2.96856188,13.2594021 0,10.291276 0,6.6294832 C0,2.96812616 2.96856188,0 6.62991892,0" id="Fill-1-Copy-2"></path>
                                <path d="M6.62970106,20.4211484 C8.03796367,20.4211484 9.18984148,21.5188622 9.27636423,22.9053197 L9.28158149,23.0730288 L9.28158149,38.9178103 C9.28158149,40.3824035 8.09429418,41.5696908 6.62970106,41.5696908 C5.22143845,41.5696908 4.06956065,40.4719769 3.98303789,39.0855194 L3.97782064,38.9178103 L3.97782064,23.0730288 C3.97782064,21.6084357 5.16510794,20.4211484 6.62970106,20.4211484 Z" id="Path-2" fill-rule="nonzero"></path>
                            </g>
                            <g id="Group-3" transform="translate(31.251491, 81.394420) scale(1, -1) rotate(315.000000) translate(-31.251491, -81.394420) translate(24.251491, 60.394420)" fill="#161616">
                                <path d="M6.62991892,0 C10.291276,0 13.2594021,2.96812616 13.2594021,6.6294832 C13.2594021,10.291276 10.291276,13.2594021 6.62991892,13.2594021 C2.96856188,13.2594021 0,10.291276 0,6.6294832 C0,2.96812616 2.96856188,0 6.62991892,0" id="Fill-1-Copy-2"></path>
                                <path d="M6.62970106,20.4211484 C8.03796367,20.4211484 9.18984148,21.5188622 9.27636423,22.9053197 L9.28158149,23.0730288 L9.28158149,38.9178103 C9.28158149,40.3824035 8.09429418,41.5696908 6.62970106,41.5696908 C5.22143845,41.5696908 4.06956065,40.4719769 3.98303789,39.0855194 L3.97782064,38.9178103 L3.97782064,23.0730288 C3.97782064,21.6084357 5.16510794,20.4211484 6.62970106,20.4211484 Z" id="Path-2" fill-rule="nonzero"></path>
                            </g>
                            <g id="Group-3" transform="translate(80.311714, 82.744024) rotate(-585.000000) translate(-80.311714, -82.744024) translate(73.311714, 61.744024)" fill="#161616">
                                <path d="M6.62991892,0 C10.291276,0 13.2594021,2.96812616 13.2594021,6.6294832 C13.2594021,10.291276 10.291276,13.2594021 6.62991892,13.2594021 C2.96856188,13.2594021 0,10.291276 0,6.6294832 C0,2.96812616 2.96856188,0 6.62991892,0" id="Fill-1-Copy-2"></path>
                                <path d="M6.62970106,20.4211484 C8.03796367,20.4211484 9.18984148,21.5188622 9.27636423,22.9053197 L9.28158149,23.0730288 L9.28158149,38.9178103 C9.28158149,40.3824035 8.09429418,41.5696908 6.62970106,41.5696908 C5.22143845,41.5696908 4.06956065,40.4719769 3.98303789,39.0855194 L3.97782064,38.9178103 L3.97782064,23.0730288 C3.97782064,21.6084357 5.16510794,20.4211484 6.62970106,20.4211484 Z" id="Path-2" fill-rule="nonzero"></path>
                            </g>
                            <g id="Group-3" transform="translate(30.727810, 33.160120) scale(1, -1) rotate(585.000000) translate(-30.727810, -33.160120) translate(23.727810, 12.160120)" fill="#161616">
                                <path d="M6.62991892,0 C10.291276,0 13.2594021,2.96812616 13.2594021,6.6294832 C13.2594021,10.291276 10.291276,13.2594021 6.62991892,13.2594021 C2.96856188,13.2594021 0,10.291276 0,6.6294832 C0,2.96812616 2.96856188,0 6.62991892,0" id="Fill-1-Copy-2"></path>
                                <path d="M6.62970106,20.4211484 C8.03796367,20.4211484 9.18984148,21.5188622 9.27636423,22.9053197 L9.28158149,23.0730288 L9.28158149,38.9178103 C9.28158149,40.3824035 8.09429418,41.5696908 6.62970106,41.5696908 C5.22143845,41.5696908 4.06956065,40.4719769 3.98303789,39.0855194 L3.97782064,38.9178103 L3.97782064,23.0730288 C3.97782064,21.6084357 5.16510794,20.4211484 6.62970106,20.4211484 Z" id="Path-2" fill-rule="nonzero"></path>
                            </g>
                            <g id="Group" transform="translate(60.029169, 35.819076) scale(1, -1) translate(-60.029169, -35.819076) translate(52.029169, 27.819076)">
                                <mask id="mask-20" fill="white">
                                    <use xlink:href="#path-19"></use>
                                </mask>
                                <g id="Clip-22"></g>
                            </g>
                        </g>
                    </g>
                </g>
            </g>
        </g>
    </g>
</svg>