<?xml version="1.0" encoding="UTF-8"?>
<svg width="320px" height="320px" viewBox="0 0 262 283" version="1.1" xmlns="http://www.w3.org/2000/svg" xmlns:xlink="http://www.w3.org/1999/xlink">
    <title>Group 14 Copy</title>
    <defs>
        <linearGradient x1="73.7564507%" y1="-9.18506307%" x2="-14.0445814%" y2="105.963303%" id="linearGradient-1">
            <stop stop-color="#FBE364" stop-opacity="0" offset="0%"></stop>
            <stop stop-color="#F5C234" offset="100%"></stop>
        </linearGradient>
    </defs>
    <g id="Page-1" stroke="none" stroke-width="1" fill="none" fill-rule="evenodd">
        <g id="Group-14-Copy">
            <g id="Group-13">
                <g id="Group-11">
                    <circle id="Oval-Copy-6" fill="url(#linearGradient-1)" opacity="0.451195126" cx="131" cy="141.660156" r="91.5"></circle>
                    <circle id="Oval-Copy-6" fill="url(#linearGradient-1)" opacity="0.105352493" transform="translate(131.000000, 141.660156) rotate(176.000000) translate(-131.000000, -141.660156) " cx="131" cy="141.660156" r="122"></circle>
                    <path d="M131.000427,123.160156 C138.179882,123.160156 144,128.980274 144,136.159729 C144,143.340039 138.179882,149.160156 131.000427,149.160156 C123.820972,149.160156 118,143.340039 118,136.159729 C118,128.980274 123.820972,123.160156 131.000427,123.160156" id="Fill-1" fill="#F5C234"></path>
                    <path d="M131.000246,43.1601562 C135.14224,43.1601562 138.5,46.5179164 138.5,50.6599098 C138.5,54.8023961 135.14224,58.1601562 131.000246,58.1601562 C126.858253,58.1601562 123.5,54.8023961 123.5,50.6599098 C123.5,46.5179164 126.858253,43.1601562 131.000246,43.1601562" id="Fill-1-Copy-3" fill="#F5C234"></path>
                    <path d="M131.000246,224.660156 C135.14224,224.660156 138.5,228.017916 138.5,232.15991 C138.5,236.302396 135.14224,239.660156 131.000246,239.660156 C126.858253,239.660156 123.5,236.302396 123.5,232.15991 C123.5,228.017916 126.858253,224.660156 131.000246,224.660156" id="Fill-1-Copy-4" fill="#F5C234"></path>
                    <line x1="131" y1="0.16015625" x2="131" y2="111.675781" id="Path-5" stroke="#1F1D18" stroke-width="2"></line>
                    <line x1="131" y1="160.644531" x2="131" y2="282.160156" id="Path-5-Copy" stroke="#1F1D18" stroke-width="2"></line>
                </g>
                <circle id="Oval" stroke="#F5C234" stroke-width="2" cx="131" cy="136.160156" r="24.484375"></circle>
            </g>
            <path d="M131.000246,43.1601562 C135.14224,43.1601562 138.5,46.5179164 138.5,50.6599098 C138.5,54.8023961 135.14224,58.1601562 131.000246,58.1601562 C126.858253,58.1601562 123.5,54.8023961 123.5,50.6599098 C123.5,46.5179164 126.858253,43.1601562 131.000246,43.1601562" id="Fill-1-Copy-3" fill="#F5C234"></path>
            <path d="M131.000246,224.660156 C135.14224,224.660156 138.5,228.017916 138.5,232.15991 C138.5,236.302396 135.14224,239.660156 131.000246,239.660156 C126.858253,239.660156 123.5,236.302396 123.5,232.15991 C123.5,228.017916 126.858253,224.660156 131.000246,224.660156" id="Fill-1-Copy-4" fill="#F5C234"></path>
        </g>
    </g>
</svg>