<?xml version="1.0" encoding="UTF-8"?>
<svg width="300px" height="380px" viewBox="0 0 220 306" version="1.1" xmlns="http://www.w3.org/2000/svg" xmlns:xlink="http://www.w3.org/1999/xlink">
    <title>Group 9 Copy</title>
    <defs>
        <linearGradient x1="62.3123163%" y1="-39.8079117%" x2="82.0222334%" y2="114.946647%" id="linearGradient-1">
            <stop stop-color="#FBE364" stop-opacity="0" offset="0%"></stop>
            <stop stop-color="#F5C234" offset="100%"></stop>
        </linearGradient>
        <polygon id="path-2" points="0.1497148 0.15902207 7.34351094 0.15902207 7.34351094 7.35249383 0.1497148 7.35249383"></polygon>
    </defs>
    <g id="Page-1" stroke="none" stroke-width="1" fill="none" fill-rule="evenodd">
        <g id="Group-9-Copy">
            <path d="M37.0129079,98.8687552 L112.431738,98.8687552 C154.084408,98.8687552 187.850569,132.634916 187.850569,174.287586 C187.850569,215.940256 154.084408,249.706416 112.431738,249.706416 C70.7790685,249.706416 37.0129079,215.940256 37.0129079,174.287586 L37.0129079,98.8687552 L37.0129079,98.8687552 Z" id="Rectangle" fill="url(#linearGradient-1)" transform="translate(112.431738, 174.287586) rotate(-315.000000) translate(-112.431738, -174.287586) "></path>
            <path d="M15,73.9318838 L50.2765498,73.9318838 C69.7592502,73.9318838 85.5530995,89.7257331 85.5530995,109.208434 C85.5530995,128.691134 69.7592502,144.484983 50.2765498,144.484983 C30.7938493,144.484983 15,128.691134 15,109.208434 L15,73.9318838 L15,73.9318838 Z" id="Rectangle-Copy-3" fill="url(#linearGradient-1)" transform="translate(50.276550, 109.208434) rotate(-315.000000) translate(-50.276550, -109.208434) "></path>
            <path d="M146.619252,8 L163.649311,8 C173.054752,8 180.679369,15.6246169 180.679369,25.0300585 C180.679369,34.4355001 173.054752,42.060117 163.649311,42.060117 C154.243869,42.060117 146.619252,34.4355001 146.619252,25.0300585 L146.619252,8 L146.619252,8 Z" id="Rectangle-Copy-4" fill="url(#linearGradient-1)" transform="translate(163.649311, 25.030059) rotate(-315.000000) translate(-163.649311, -25.030059) "></path>
            <path d="M33.2464913,263.91586 L50.2765498,263.91586 C59.6819914,263.91586 67.3066083,271.540477 67.3066083,280.945919 C67.3066083,290.35136 59.6819914,297.975977 50.2765498,297.975977 C40.8711082,297.975977 33.2464913,290.35136 33.2464913,280.945919 L33.2464913,263.91586 L33.2464913,263.91586 Z" id="Rectangle-Copy-5" fill="url(#linearGradient-1)" transform="translate(50.276550, 280.945919) rotate(-315.000000) translate(-50.276550, -280.945919) "></path>
            <g id="Group-6" transform="translate(85.062002, 146.917849)">
                <path d="M27.2721605,23.8365836 C29.409982,23.8365836 31.1430344,25.569636 31.1430344,27.7074574 C31.1430344,29.8455332 29.409982,31.5785856 27.2721605,31.5785856 C25.1343391,31.5785856 23.4010323,29.8455332 23.4010323,27.7074574 C23.4010323,25.569636 25.1343391,23.8365836 27.2721605,23.8365836" id="Fill-1-Copy" fill="#161616"></path>
                <g id="Group-4" transform="translate(23.587652, 0.000000)" fill="#161616">
                    <g id="Group-3">
                        <path d="M3.2259402,0 C5.00745805,0 6.4516684,1.44421035 6.4516684,3.22572819 C6.4516684,5.00745805 5.00745805,6.4516684 3.2259402,6.4516684 C1.44442236,6.4516684 0,5.00745805 0,3.22572819 C0,1.44421035 1.44442236,0 3.2259402,0" id="Fill-1-Copy-2"></path>
                        <path d="M3.2258342,9.93638148 C3.9110569,9.93638148 4.47152966,10.4704995 4.5136293,11.1451124 L4.51616788,11.2267152 L4.51616788,18.9363596 C4.51616788,19.6489913 3.93846581,20.2266933 3.2258342,20.2266933 C2.54061149,20.2266933 1.98013874,19.6925753 1.93803909,19.0179624 L1.93550052,18.9363596 L1.93550052,11.2267152 C1.93550052,10.5140835 2.51320259,9.93638148 3.2258342,9.93638148 Z" id="Path-2" fill-rule="nonzero"></path>
                    </g>
                    <g id="Group-3" transform="translate(3.649298, 44.215982) scale(1, -1) translate(-3.649298, -44.215982) translate(0.000000, 33.876304)">
                        <path d="M3.2259402,0 C5.00745805,0 6.4516684,1.44421035 6.4516684,3.22572819 C6.4516684,5.00745805 5.00745805,6.4516684 3.2259402,6.4516684 C1.44442236,6.4516684 0,5.00745805 0,3.22572819 C0,1.44421035 1.44442236,0 3.2259402,0" id="Fill-1-Copy-2"></path>
                        <path d="M3.2258342,9.93638148 C3.9110569,9.93638148 4.47152966,10.4704995 4.5136293,11.1451124 L4.51616788,11.2267152 L4.51616788,18.9363596 C4.51616788,19.6489913 3.93846581,20.2266933 3.2258342,20.2266933 C2.54061149,20.2266933 1.98013874,19.6925753 1.93803909,19.0179624 L1.93550052,18.9363596 L1.93550052,11.2267152 C1.93550052,10.5140835 2.51320259,9.93638148 3.2258342,9.93638148 Z" id="Path-2" fill-rule="nonzero"></path>
                    </g>
                </g>
                <g id="Group-3" transform="translate(31.443439, 28.165638) rotate(-270.000000) translate(-31.443439, -28.165638) translate(27.794140, 5.053416)" fill="#161616">
                    <path d="M3.2259402,0 C5.00745805,0 6.4516684,1.44421035 6.4516684,3.22572819 C6.4516684,5.00745805 5.00745805,6.4516684 3.2259402,6.4516684 C1.44442236,6.4516684 0,5.00745805 0,3.22572819 C0,1.44421035 1.44442236,0 3.2259402,0" id="Fill-1-Copy-2"></path>
                    <g id="Group-2" transform="translate(1.607521, 9.766996)" fill-rule="nonzero">
                        <path d="M1.61831304,0.169385621 C2.30353575,0.169385621 2.8640085,0.703503656 2.90610815,1.37811657 L2.90864672,1.4597193 L2.90864672,9.16936378 C2.90864672,9.88199539 2.33094465,10.4596975 1.61831304,10.4596975 C0.933090335,10.4596975 0.372617581,9.92557943 0.330517935,9.25096651 L0.327979361,9.16936378 L0.327979361,1.4597193 C0.327979361,0.747087687 0.905681427,0.169385621 1.61831304,0.169385621 Z" id="Path-2"></path>
                        <path d="M1.61831304,24.5619716 C2.30353575,24.5619716 2.8640085,25.0960897 2.90610815,25.7707026 L2.90864672,25.8523053 L2.90864672,33.5619498 C2.90864672,34.2745814 2.33094465,34.8522835 1.61831304,34.8522835 C0.933090335,34.8522835 0.372617581,34.3181654 0.330517935,33.6435525 L0.327979361,33.5619498 L0.327979361,25.8523053 C0.327979361,25.1396737 0.905681427,24.5619716 1.61831304,24.5619716 Z" id="Path-2" transform="translate(1.618313, 29.707128) scale(1, -1) translate(-1.618313, -29.707128) "></path>
                    </g>
                </g>
                <g id="Group-3" transform="translate(3.649298, 28.165638) scale(1, -1) rotate(270.000000) translate(-3.649298, -28.165638) translate(0.000000, 24.516340)" fill="#161616">
                    <path d="M3.2259402,0 C5.00745805,0 6.4516684,1.44421035 6.4516684,3.22572819 C6.4516684,5.00745805 5.00745805,6.4516684 3.2259402,6.4516684 C1.44442236,6.4516684 0,5.00745805 0,3.22572819 C0,1.44421035 1.44442236,0 3.2259402,0" id="Fill-1-Copy-2"></path>
                </g>
                <g id="Group-3" transform="translate(39.418344, 15.736186) rotate(-315.000000) translate(-39.418344, -15.736186) translate(35.769045, 5.396507)" fill="#161616">
                    <path d="M3.2259402,0 C5.00745805,0 6.4516684,1.44421035 6.4516684,3.22572819 C6.4516684,5.00745805 5.00745805,6.4516684 3.2259402,6.4516684 C1.44442236,6.4516684 0,5.00745805 0,3.22572819 C0,1.44421035 1.44442236,0 3.2259402,0" id="Fill-1-Copy-2"></path>
                    <path d="M3.2258342,9.93638148 C3.9110569,9.93638148 4.47152966,10.4704995 4.5136293,11.1451124 L4.51616788,11.2267152 L4.51616788,18.9363596 C4.51616788,19.6489913 3.93846581,20.2266933 3.2258342,20.2266933 C2.54061149,20.2266933 1.98013874,19.6925753 1.93803909,19.0179624 L1.93550052,18.9363596 L1.93550052,11.2267152 C1.93550052,10.5140835 2.51320259,9.93638148 3.2258342,9.93638148 Z" id="Path-2" fill-rule="nonzero"></path>
                </g>
                <g id="Group-3" transform="translate(15.464179, 39.690350) scale(1, -1) rotate(315.000000) translate(-15.464179, -39.690350) translate(11.814881, 29.350672)" fill="#161616">
                    <path d="M3.2259402,0 C5.00745805,0 6.4516684,1.44421035 6.4516684,3.22572819 C6.4516684,5.00745805 5.00745805,6.4516684 3.2259402,6.4516684 C1.44442236,6.4516684 0,5.00745805 0,3.22572819 C0,1.44421035 1.44442236,0 3.2259402,0" id="Fill-1-Copy-2"></path>
                    <path d="M3.2258342,9.93638148 C3.9110569,9.93638148 4.47152966,10.4704995 4.5136293,11.1451124 L4.51616788,11.2267152 L4.51616788,18.9363596 C4.51616788,19.6489913 3.93846581,20.2266933 3.2258342,20.2266933 C2.54061149,20.2266933 1.98013874,19.6925753 1.93803909,19.0179624 L1.93550052,18.9363596 L1.93550052,11.2267152 C1.93550052,10.5140835 2.51320259,9.93638148 3.2258342,9.93638148 Z" id="Path-2" fill-rule="nonzero"></path>
                </g>
                <g id="Group-3" transform="translate(38.819475, 40.347031) rotate(-585.000000) translate(-38.819475, -40.347031) translate(35.170177, 30.007353)" fill="#161616">
                    <path d="M3.2259402,0 C5.00745805,0 6.4516684,1.44421035 6.4516684,3.22572819 C6.4516684,5.00745805 5.00745805,6.4516684 3.2259402,6.4516684 C1.44442236,6.4516684 0,5.00745805 0,3.22572819 C0,1.44421035 1.44442236,0 3.2259402,0" id="Fill-1-Copy-2"></path>
                    <path d="M3.2258342,9.93638148 C3.9110569,9.93638148 4.47152966,10.4704995 4.5136293,11.1451124 L4.51616788,11.2267152 L4.51616788,18.9363596 C4.51616788,19.6489913 3.93846581,20.2266933 3.2258342,20.2266933 C2.54061149,20.2266933 1.98013874,19.6925753 1.93803909,19.0179624 L1.93550052,18.9363596 L1.93550052,11.2267152 C1.93550052,10.5140835 2.51320259,9.93638148 3.2258342,9.93638148 Z" id="Path-2" fill-rule="nonzero"></path>
                </g>
                <g id="Group-3" transform="translate(14.865311, 16.392867) scale(1, -1) rotate(585.000000) translate(-14.865311, -16.392867) translate(11.216013, 6.053188)" fill="#161616">
                    <path d="M3.2259402,0 C5.00745805,0 6.4516684,1.44421035 6.4516684,3.22572819 C6.4516684,5.00745805 5.00745805,6.4516684 3.2259402,6.4516684 C1.44442236,6.4516684 0,5.00745805 0,3.22572819 C0,1.44421035 1.44442236,0 3.2259402,0" id="Fill-1-Copy-2"></path>
                    <path d="M3.2258342,9.93638148 C3.9110569,9.93638148 4.47152966,10.4704995 4.5136293,11.1451124 L4.51616788,11.2267152 L4.51616788,18.9363596 C4.51616788,19.6489913 3.93846581,20.2266933 3.2258342,20.2266933 C2.54061149,20.2266933 1.98013874,19.6925753 1.93803909,19.0179624 L1.93550052,18.9363596 L1.93550052,11.2267152 C1.93550052,10.5140835 2.51320259,9.93638148 3.2258342,9.93638148 Z" id="Path-2" fill-rule="nonzero"></path>
                </g>
                <g id="Group" transform="translate(29.573509, 17.063669) scale(1, -1) translate(-29.573509, -17.063669) translate(25.315994, 12.806154)">
                    <mask id="mask-3" fill="white">
                        <use xlink:href="#path-2"></use>
                    </mask>
                    <g id="Clip-22"></g>
                </g>
            </g>
        </g>
    </g>
</svg>