<?xml version="1.0" encoding="UTF-8"?>
<svg width="282px" height="113px" viewBox="0 0 282 113" version="1.1" xmlns="http://www.w3.org/2000/svg" xmlns:xlink="http://www.w3.org/1999/xlink">
    <title>white@2x</title>
    <defs>
        <polygon id="path-1" points="0.307692308 0.326820513 15.0923077 0.326820513 15.0923077 15.1107692 0.307692308 15.1107692"></polygon>
    </defs>
    <g id="Page-1" stroke="none" stroke-width="1" fill="none" fill-rule="evenodd">
        <g id="white">
            <g id="Group-6">
                <text id="flow-copy-8" font-family="Inter-Regular_Light, Inter" font-size="60" font-weight="300" letter-spacing="5.625" fill="#FFFFFF">
                    <tspan x="140.393555" y="79">flow</tspan>
                </text>
                <g id="Group-6-Copy-4">
                    <path d="M56.0494621,48.9886998 C60.4430905,48.9886998 64.0048419,52.5504512 64.0048419,56.9440797 C64.0048419,61.338231 60.4430905,64.8999824 56.0494621,64.8999824 C51.6558336,64.8999824 48.0935594,61.338231 48.0935594,56.9440797 C48.0935594,52.5504512 51.6558336,48.9886998 56.0494621,48.9886998" id="Fill-1-Copy" fill="#F5C234"></path>
                    <g id="Group-4" transform="translate(48.477099, 0.000000)">
                        <g id="Group-3">
                            <path d="M6.62991892,0 C10.291276,0 13.2594021,2.96812616 13.2594021,6.6294832 C13.2594021,10.291276 10.291276,13.2594021 6.62991892,13.2594021 C2.96856188,13.2594021 0,10.291276 0,6.6294832 C0,2.96812616 2.96856188,0 6.62991892,0" id="Fill-1-Copy-2" fill="#F5C234"></path>
                            <line x1="6.62970106" y1="38.9178103" x2="6.62970106" y2="23.0730288" id="Path-2" stroke="#FFFFFF" stroke-width="5.30376085" stroke-linecap="round"></line>
                        </g>
                        <g id="Group-3" transform="translate(7.000000, 92.622229) scale(1, -1) translate(-7.000000, -92.622229) translate(0.000000, 73.122229)">
                            <path d="M6.62991892,0 C10.291276,0 13.2594021,2.96812616 13.2594021,6.6294832 C13.2594021,10.291276 10.291276,13.2594021 6.62991892,13.2594021 C2.96856188,13.2594021 0,10.291276 0,6.6294832 C0,2.96812616 2.96856188,0 6.62991892,0" id="Fill-1-Copy-2" fill="#F5C234"></path>
                            <line x1="6.62970106" y1="38.9178103" x2="6.62970106" y2="23.0730288" id="Path-2" stroke="#FFFFFF" stroke-width="5.30376085" stroke-linecap="round"></line>
                        </g>
                    </g>
                    <g id="Group-3" transform="translate(67.122229, 57.385728) rotate(-270.000000) translate(-67.122229, -57.385728) translate(60.122229, 12.385728)">
                        <path d="M6.62991892,0 C10.291276,0 13.2594021,2.96812616 13.2594021,6.6294832 C13.2594021,10.291276 10.291276,13.2594021 6.62991892,13.2594021 C2.96856188,13.2594021 0,10.291276 0,6.6294832 C0,2.96812616 2.96856188,0 6.62991892,0" id="Fill-1-Copy-2" fill="#F5C234"></path>
                        <g id="Group-2" transform="translate(5.303761, 23.073029)" stroke="#FFFFFF" stroke-linecap="round" stroke-width="5.30376085">
                            <line x1="1.32594021" y1="15.8447815" x2="1.32594021" y2="-3.29070104e-13" id="Path-2"></line>
                            <line x1="1.32594021" y1="65.9761719" x2="1.32594021" y2="50.1313903" id="Path-2" transform="translate(1.325940, 58.053781) scale(1, -1) translate(-1.325940, -58.053781) "></line>
                        </g>
                    </g>
                    <g id="Group-3" transform="translate(7.000000, 57.385728) scale(1, -1) rotate(270.000000) translate(-7.000000, -57.385728) translate(0.000000, 50.385728)" fill="#F5C234">
                        <path d="M6.62991892,0 C10.291276,0 13.2594021,2.96812616 13.2594021,6.6294832 C13.2594021,10.291276 10.291276,13.2594021 6.62991892,13.2594021 C2.96856188,13.2594021 0,10.291276 0,6.6294832 C0,2.96812616 2.96856188,0 6.62991892,0" id="Fill-1-Copy-2"></path>
                    </g>
                    <g id="Group-3" transform="translate(81.896056, 30.749856) rotate(-315.000000) translate(-81.896056, -30.749856) translate(74.896056, 11.249856)">
                        <path d="M6.62991892,0 C10.291276,0 13.2594021,2.96812616 13.2594021,6.6294832 C13.2594021,10.291276 10.291276,13.2594021 6.62991892,13.2594021 C2.96856188,13.2594021 0,10.291276 0,6.6294832 C0,2.96812616 2.96856188,0 6.62991892,0" id="Fill-1-Copy-2" fill="#F5C234"></path>
                        <line x1="6.62970106" y1="38.9178103" x2="6.62970106" y2="23.0730288" id="Path-2" stroke="#FFFFFF" stroke-width="5.30376085" stroke-linecap="round"></line>
                    </g>
                    <g id="Group-3" transform="translate(30.190831, 82.455080) scale(1, -1) rotate(315.000000) translate(-30.190831, -82.455080) translate(23.190831, 62.955080)">
                        <path d="M6.62991892,0 C10.291276,0 13.2594021,2.96812616 13.2594021,6.6294832 C13.2594021,10.291276 10.291276,13.2594021 6.62991892,13.2594021 C2.96856188,13.2594021 0,10.291276 0,6.6294832 C0,2.96812616 2.96856188,0 6.62991892,0" id="Fill-1-Copy-2" fill="#F5C234"></path>
                        <line x1="6.62970106" y1="38.9178103" x2="6.62970106" y2="23.0730288" id="Path-2" stroke="#FFFFFF" stroke-width="5.30376085" stroke-linecap="round"></line>
                    </g>
                    <g id="Group-3" transform="translate(81.372374, 83.804684) rotate(-585.000000) translate(-81.372374, -83.804684) translate(74.372374, 64.304684)">
                        <path d="M6.62991892,0 C10.291276,0 13.2594021,2.96812616 13.2594021,6.6294832 C13.2594021,10.291276 10.291276,13.2594021 6.62991892,13.2594021 C2.96856188,13.2594021 0,10.291276 0,6.6294832 C0,2.96812616 2.96856188,0 6.62991892,0" id="Fill-1-Copy-2" fill="#F5C234"></path>
                        <line x1="6.62970106" y1="38.9178103" x2="6.62970106" y2="23.0730288" id="Path-2" stroke="#FFFFFF" stroke-width="5.30376085" stroke-linecap="round"></line>
                    </g>
                    <g id="Group-3" transform="translate(29.667149, 32.099460) scale(1, -1) rotate(585.000000) translate(-29.667149, -32.099460) translate(22.667149, 12.599460)">
                        <path d="M6.62991892,0 C10.291276,0 13.2594021,2.96812616 13.2594021,6.6294832 C13.2594021,10.291276 10.291276,13.2594021 6.62991892,13.2594021 C2.96856188,13.2594021 0,10.291276 0,6.6294832 C0,2.96812616 2.96856188,0 6.62991892,0" id="Fill-1-Copy-2" fill="#F5C234"></path>
                        <line x1="6.62970106" y1="38.9178103" x2="6.62970106" y2="23.0730288" id="Path-2" stroke="#FFFFFF" stroke-width="5.30376085" stroke-linecap="round"></line>
                    </g>
                    <g id="Group" transform="translate(60.029169, 35.819076) scale(1, -1) translate(-60.029169, -35.819076) translate(52.029169, 27.819076)">
                        <mask id="mask-2" fill="white">
                            <use xlink:href="#path-1"></use>
                        </mask>
                        <g id="Clip-22"></g>
                    </g>
                </g>
            </g>
        </g>
    </g>
</svg>